<?xml version="1.0" standalone="no"?>
<!DOCTYPE svg PUBLIC "-//W3C//DTD SVG 1.1//EN" "http://www.w3.org/Graphics/SVG/1.1/DTD/svg11.dtd" >
<svg xmlns="http://www.w3.org/2000/svg">
<metadata></metadata>
<defs>
<font id="digital_display_tfbregular" horiz-adv-x="799" >
<font-face units-per-em="2048" ascent="1638" descent="-410" />
<missing-glyph horiz-adv-x="508" />
<glyph horiz-adv-x="0" />
<glyph unicode="&#xd;" horiz-adv-x="508" />
<glyph unicode=" "  horiz-adv-x="508" />
<glyph unicode="&#x09;" horiz-adv-x="508" />
<glyph unicode="&#xa0;" horiz-adv-x="508" />
<glyph unicode="!" horiz-adv-x="400" d="M123 -82q50 60 72 60h24q22 0 72 -60v-4q-50 -60 -72 -60h-24q-22 0 -72 60v4zM127 120v380q0 5 60 60q5 0 60 -60v-500q-5 0 -120 120zM127 672v384l120 116v-500q0 -5 -60 -60q-5 0 -60 60z" />
<glyph unicode="&#x22;" horiz-adv-x="502" d="M99 1172v172q0 5 60 60h56v-232q0 -5 -60 -60zM299 1172v172q0 5 60 60h56v-232q0 -5 -60 -60z" />
<glyph unicode="#" horiz-adv-x="1140" d="M0 500q0 5 60 60h172q5 0 60 -60v-60h-220q-22 0 -72 60zM0 664q0 5 60 60h232v-60q-50 -60 -72 -60h-148q-22 0 -72 60zM316 0v504q1 7 60 56q59 -49 60 -56v-384q0 -5 -120 -120zM316 664v504q5 0 120 -120v-384q-1 -7 -60 -56q-59 49 -60 56zM640 120v380q0 5 60 60 q5 0 60 -60v-500q-5 0 -120 120zM640 668v380q0 5 120 120v-500q0 -5 -60 -60q-5 0 -60 60zM784 440v60q0 5 60 60h172q5 0 60 -60q-50 -60 -72 -60h-220zM784 664v60h232q5 0 60 -60q-50 -60 -72 -60h-148q-22 0 -72 60z" />
<glyph unicode="$" horiz-adv-x="755" d="M0 687v384q1 7 60 56q59 -49 60 -56v-384q-1 -7 -60 -56q-59 49 -60 56zM84 55q49 59 56 60h384q7 -1 56 -60q-49 -59 -56 -60h-384q-7 1 -56 60zM84 603q27 35 52 60h392q25 -25 52 -60q-27 -35 -52 -60h-392q-25 25 -52 60zM84 1151q49 59 56 60h384q7 -1 56 -60 q-49 -59 -56 -60h-384q-7 1 -56 60zM272 -101q0 22 60 72q5 0 60 -60v-172q0 -5 -60 -60h-60v220zM276 1295v172q0 5 36 36h80v-208q0 -5 -60 -60zM544 135v384q1 7 60 56q59 -49 60 -56v-384q-1 -7 -60 -56q-59 49 -60 56z" />
<glyph unicode="%" horiz-adv-x="897" d="M-49 815v56q0 5 64 64q5 0 64 -64v-56q0 -5 -64 -64q-5 0 -64 64zM37 721q0 6 64 64h55q6 0 65 -64q0 -5 -65 -64h-55q-6 0 -64 64zM41 957v4q53 64 77 64h26q23 0 77 -64v-4q-54 -65 -77 -65h-26q-24 0 -77 65zM60 86q189 334 210 359l81 17q26 -67 26 -85 q-188 -329 -210 -360q-74 -13 -81 -17q-26 68 -26 86zM178 824v26q0 23 64 77h4q64 -54 64 -77v-26q0 -24 -64 -77h-4q-64 53 -64 77zM424 744q187 329 209 360q74 13 82 17q25 -68 25 -86q-189 -334 -209 -359l-82 -17q-25 67 -25 85zM537 171v55q0 6 64 64q6 0 65 -64v-55 q0 -6 -65 -65q-5 0 -64 65zM623 76q0 6 64 65h56q5 0 64 -65q0 -5 -64 -64h-56q-5 0 -64 64zM627 312v4q53 64 77 64h26q23 0 77 -64v-4q-54 -64 -77 -64h-26q-24 0 -77 64zM764 179v26q0 24 64 77h4q65 -53 65 -77v-26q0 -23 -65 -77h-4q-64 54 -64 77z" />
<glyph unicode="&#x26;" horiz-adv-x="1683" d="M0 144v384q1 7 60 56q59 -49 60 -56v-384q-1 -7 -60 -56q-59 49 -60 56zM0 692v384q1 7 60 56q59 -49 60 -56v-384q-1 -7 -60 -56q-59 49 -60 56zM84 60q49 59 56 60h384q7 -1 56 -60q-49 -59 -56 -60h-384q-7 1 -56 60zM84 608q27 35 52 60h392q25 -25 52 -60 q-27 -35 -52 -60h-392q-25 25 -52 60zM84 1156q49 59 56 60h384q7 -1 56 -60q-49 -59 -56 -60h-384q-7 1 -56 60zM541 699v172q0 5 60 60h56v-232q0 -5 -60 -60zM544 140v384q1 7 60 56q59 -49 60 -56v-384q-1 -7 -60 -56q-59 49 -60 56zM684 188v80h84q6 -1 124 -124v-84 q0 -5 -40 -40q-8 3 -168 168zM684 436v72q1 6 132 132h72q5 0 44 -44q-3 -8 -168 -168h-72q-8 0 -8 8z" />
<glyph unicode="'" horiz-adv-x="307" d="M93 1260v172q0 5 60 60h56v-232q0 -5 -60 -60z" />
<glyph unicode="(" horiz-adv-x="507" d="M0 24v504q1 7 60 56q59 -49 60 -56v-384q0 -5 -120 -120zM0 688v504l120 -116v-388q-1 -7 -60 -56q-59 49 -60 56zM20 0q0 5 120 120h192q5 0 60 -60q0 -5 -60 -60h-312zM20 1216h312q5 0 60 -60q0 -5 -60 -60h-192q-5 0 -120 120z" />
<glyph unicode=")" horiz-adv-x="502" d="M0 60q0 5 60 60h192q5 0 120 -120h-312q-5 0 -60 60zM0 1156q0 5 60 60h312q0 -5 -120 -120h-192q-5 0 -60 60zM272 144v384q1 7 60 56q59 -49 60 -56v-504q-5 0 -120 120zM272 688v388l120 116v-504q-1 -7 -60 -56q-59 49 -60 56z" />
<glyph unicode="*" horiz-adv-x="1024" d="M104 866v48q0 5 64 64h172q5 0 60 -60q0 -5 -60 -60h-228q-8 0 -8 8zM180 1170q0 5 44 44h76q6 -1 128 -128v-84h-80q-8 3 -168 168zM220 638v76q1 6 128 128h80v-80q-3 -8 -168 -168zM448 522v220q0 22 60 72q5 0 60 -60v-172q0 -5 -60 -60h-60zM460 1094v172q0 5 60 60 h56v-232q0 -5 -60 -60zM592 762v80h84q6 -1 124 -124v-84q0 -5 -40 -40q-8 3 -168 168zM592 1010v72q1 6 132 132h72q5 0 44 -44q-3 -8 -168 -168h-72q-8 0 -8 8zM624 918q0 5 60 60h172q5 0 60 -60v-60h-232q-5 0 -60 60z" />
<glyph unicode="+" horiz-adv-x="692" d="M97 605q27 35 52 60h136v132q1 7 60 56q59 -49 60 -56v-132h136q25 -25 52 -60q-27 -35 -52 -60h-136v-132q-1 -7 -60 -56q-59 49 -60 56v132h-136q-25 25 -52 60z" />
<glyph unicode="," horiz-adv-x="200" d="M35 48q0 5 60 60h56v-232q0 -5 -60 -60l-56 60v172z" />
<glyph unicode="-" horiz-adv-x="670" d="M90 608q49 59 56 60h384q7 -1 56 -60q-49 -59 -56 -60h-384q-7 1 -56 60z" />
<glyph unicode="." horiz-adv-x="249" d="M1 71v4q50 60 72 60h24q22 0 72 -60v-4q-50 -60 -72 -60h-24q-22 0 -72 60z" />
<glyph unicode="/" horiz-adv-x="770" d="M0 92q204 361 226 388l88 18q27 -72 27 -92q-202 -354 -226 -388q-79 -13 -87 -18q-28 73 -28 92zM392 803q202 354 226 388q80 13 88 18q28 -73 28 -92q-205 -361 -226 -388l-88 -18q-28 72 -28 92z" />
<glyph unicode="0" horiz-adv-x="775" d="M0 144v384q1 7 60 56q59 -49 60 -56v-384q-1 -7 -60 -56q-59 49 -60 56zM0 692v384q1 7 60 56q59 -49 60 -56v-384q-1 -7 -60 -56q-59 49 -60 56zM84 60q49 59 56 60h384q7 -1 56 -60q-49 -59 -56 -60h-384q-7 1 -56 60zM84 1156q49 59 56 60h384q7 -1 56 -60 q-49 -59 -56 -60h-384q-7 1 -56 60zM544 140v384q1 7 60 56q59 -49 60 -56v-384q-1 -7 -60 -56q-59 49 -60 56zM544 692v384q1 7 60 56q59 -49 60 -56v-384q-1 -7 -60 -56q-59 49 -60 56z" />
<glyph unicode="1" horiz-adv-x="229" d="M0 120v380q0 5 60 60q5 0 60 -60v-500q-5 0 -120 120zM0 672v384l120 116v-500q0 -5 -60 -60q-5 0 -60 60z" />
<glyph unicode="2" horiz-adv-x="780" d="M0 144v384q1 7 60 56q59 -49 60 -56v-384q-1 -7 -60 -56q-59 49 -60 56zM84 60q49 59 56 60h384q7 -1 56 -60q-49 -59 -56 -60h-384q-7 1 -56 60zM84 608q27 35 52 60h392q25 -25 52 -60q-27 -35 -52 -60h-392q-25 25 -52 60zM84 1156q49 59 56 60h384q7 -1 56 -60 q-49 -59 -56 -60h-384q-7 1 -56 60zM544 692v384q1 7 60 56q59 -49 60 -56v-384q-1 -7 -60 -56q-59 49 -60 56z" />
<glyph unicode="3" horiz-adv-x="677" d="M0 60q49 59 56 60h384q7 -1 56 -60q-49 -59 -56 -60h-384q-7 1 -56 60zM0 608q49 59 56 60h384q7 -1 56 -60q-49 -59 -56 -60h-384q-7 1 -56 60zM0 1156q49 59 56 60h384q7 -1 56 -60q-49 -59 -56 -60h-384q-7 1 -56 60zM460 140v384q1 7 60 56q59 -49 60 -56v-384 q-1 -7 -60 -56q-59 49 -60 56zM460 692v384q1 7 60 56q59 -49 60 -56v-384q-1 -7 -60 -56q-59 49 -60 56z" />
<glyph unicode="4" horiz-adv-x="780" d="M0 672v500q5 0 120 -120v-380q0 -5 -60 -60q-5 0 -60 60zM84 588q49 59 56 60h384q7 -1 56 -60q-49 -59 -56 -60h-384q-7 1 -56 60zM544 120v384q1 7 60 56q59 -49 60 -56v-504q-5 0 -120 120zM544 672v380q0 5 120 120v-500q0 -5 -60 -60q-5 0 -60 60z" />
<glyph unicode="5" horiz-adv-x="780" d="M0 692v384q1 7 60 56q59 -49 60 -56v-384q-1 -7 -60 -56q-59 49 -60 56zM84 60q49 59 56 60h384q7 -1 56 -60q-49 -59 -56 -60h-384q-7 1 -56 60zM84 608q27 35 52 60h392q25 -25 52 -60q-27 -35 -52 -60h-392q-25 25 -52 60zM84 1156q49 59 56 60h384q7 -1 56 -60 q-49 -59 -56 -60h-384q-7 1 -56 60zM544 140v384q1 7 60 56q59 -49 60 -56v-384q-1 -7 -60 -56q-59 49 -60 56z" />
<glyph unicode="6" horiz-adv-x="780" d="M0 144v384q1 7 60 56q59 -49 60 -56v-384q-1 -7 -60 -56q-59 49 -60 56zM0 692v384q1 7 60 56q59 -49 60 -56v-384q-1 -7 -60 -56q-59 49 -60 56zM84 60q49 59 56 60h384q7 -1 56 -60q-49 -59 -56 -60h-384q-7 1 -56 60zM84 608q27 35 52 60h392q25 -25 52 -60 q-27 -35 -52 -60h-392q-25 25 -52 60zM84 1156q49 59 56 60h384q7 -1 56 -60q-49 -59 -56 -60h-384q-7 1 -56 60zM544 140v384q1 7 60 56q59 -49 60 -56v-384q-1 -7 -60 -56q-59 49 -60 56z" />
<glyph unicode="7" horiz-adv-x="770" d="M0 1196h504q7 -1 56 -60q-49 -59 -56 -60h-384q-5 0 -120 120zM524 120v384q1 7 60 56q59 -49 60 -56v-504q-5 0 -120 120zM524 672v384q1 7 60 56q59 -49 60 -56v-384q-1 -7 -60 -56q-59 49 -60 56z" />
<glyph unicode="8" horiz-adv-x="789" d="M0 144v384q1 7 60 56q59 -49 60 -56v-384q-1 -7 -60 -56q-59 49 -60 56zM0 692v384q1 7 60 56q59 -49 60 -56v-384q-1 -7 -60 -56q-59 49 -60 56zM84 60q49 59 56 60h384q7 -1 56 -60q-49 -59 -56 -60h-384q-7 1 -56 60zM84 608q27 35 52 60h392q25 -25 52 -60 q-27 -35 -52 -60h-392q-25 25 -52 60zM84 1156q49 59 56 60h384q7 -1 56 -60q-49 -59 -56 -60h-384q-7 1 -56 60zM544 140v384q1 7 60 56q59 -49 60 -56v-384q-1 -7 -60 -56q-59 49 -60 56zM544 692v384q1 7 60 56q59 -49 60 -56v-384q-1 -7 -60 -56q-59 49 -60 56z" />
<glyph unicode="9" horiz-adv-x="780" d="M0 672v500q5 0 120 -120v-380q0 -5 -60 -60q-5 0 -60 60zM20 1196h504q7 -1 56 -60q-49 -59 -56 -60h-384q-5 0 -120 120zM84 588q49 59 56 60h384q7 -1 56 -60q-49 -59 -56 -60h-384q-7 1 -56 60zM544 120v384q1 7 60 56q59 -49 60 -56v-504q-5 0 -120 120zM544 672v384 q1 7 60 56q59 -49 60 -56v-384q-1 -7 -60 -56q-59 49 -60 56z" />
<glyph unicode=":" horiz-adv-x="253" d="M6 947v4q50 60 72 60h24q22 0 72 -60v-4q-50 -60 -72 -60h-24q-22 0 -72 60zM16 71v4q50 60 72 60h24q22 0 72 -60v-4q-50 -60 -72 -60h-24q-22 0 -72 60z" />
<glyph unicode=";" horiz-adv-x="273" d="M6 947v4q50 60 72 60h24q22 0 72 -60v-4q-50 -60 -72 -60h-24q-22 0 -72 60zM35 48q0 5 60 60h56v-232q0 -5 -60 -60l-56 60v172z" />
<glyph unicode="&#x3c;" horiz-adv-x="702" d="M17 564v48q0 5 64 64h172q5 0 60 -60q0 -5 -60 -60h-228q-8 0 -8 8zM355 460v80h84q6 -1 124 -124v-84q0 -5 -40 -40q-8 3 -168 168zM355 708v72q1 6 132 132h72q5 0 44 -44q-3 -8 -168 -168h-72q-8 0 -8 8z" />
<glyph unicode="=" horiz-adv-x="697" d="M100 608q49 59 56 60h384q7 -1 56 -60q-49 -59 -56 -60h-384q-7 1 -56 60zM100 958q49 59 56 60h384q7 -1 56 -60q-49 -59 -56 -60h-384q-7 1 -56 60z" />
<glyph unicode="&#x3e;" horiz-adv-x="707" d="M17 868q39 44 44 44h72q131 -126 132 -132v-72q0 -8 -8 -8h-72q-165 160 -168 168zM57 332v84q118 123 124 124h84v-80q-160 -165 -168 -168q-40 35 -40 40zM307 616q55 60 60 60h172q64 -59 64 -64v-48q0 -8 -8 -8h-228q-60 55 -60 60z" />
<glyph unicode="?" horiz-adv-x="828" d="M94 -62q50 60 72 60h24q22 0 72 -60v-4q-50 -60 -72 -60h-24q-22 0 -72 60v4zM118 94v384q1 7 60 56q59 -49 60 -56v-384q-1 -7 -60 -56q-59 49 -60 56zM202 558q27 35 52 60h392q25 -25 52 -60q-27 -35 -52 -60h-392q-25 25 -52 60zM202 1106q49 59 56 60h384 q7 -1 56 -60q-49 -59 -56 -60h-384q-7 1 -56 60zM662 642v384q1 7 60 56q59 -49 60 -56v-384q-1 -7 -60 -56q-59 49 -60 56z" />
<glyph unicode="@" horiz-adv-x="897" d="M0 24v508q25 25 60 52q35 -27 60 -52v-392zM0 684v508l120 -112v-396q-25 -25 -60 -52q-35 27 -60 52zM20 0q0 5 120 120h192q5 0 60 -60q0 -5 -60 -60h-312zM20 1216h312q5 0 60 -60q0 -5 -60 -60h-192q-5 0 -120 120zM236 296v244q0 5 32 32l28 -32v-244h-60zM236 628 v212q0 5 32 32l28 -32v-212q0 -5 -32 -32zM276 884l32 28h216q5 0 32 -32l-32 -28h-216q-5 0 -32 32zM280 584q0 5 32 32h208q5 0 32 -32q0 -5 -32 -32h-208q-5 0 -32 32zM416 60q0 5 60 60h192q5 0 120 -120h-312q-5 0 -60 60zM416 1156q0 5 60 60h312q0 -5 -120 -120h-192 q-5 0 -60 60zM536 296v244q0 5 32 32l28 -32v-244h-60zM536 624v216q0 5 32 32l28 -32v-216q0 -6 -28 -28h-4q-6 0 -28 28zM688 688v388l120 116v-504q-1 -7 -60 -56q-59 49 -60 56z" />
<glyph unicode="A" horiz-adv-x="707" d="M0 0v500q0 5 60 60q5 0 60 -60v-380q0 -5 -120 -120zM0 668v384q1 7 60 56q59 -49 60 -56v-384q-1 -7 -60 -56q-59 49 -60 56zM84 584q27 35 52 60h392q25 -25 52 -60q-27 -35 -52 -60h-392q-25 25 -52 60zM84 1132q49 59 56 60h384q7 -1 56 -60q-49 -59 -56 -60h-384 q-7 1 -56 60zM544 120v380q0 5 60 60q5 0 60 -60v-500q-5 0 -120 120zM544 668v384q1 7 60 56q59 -49 60 -56v-384q-1 -7 -60 -56q-59 49 -60 56z" />
<glyph unicode="B" horiz-adv-x="711" d="M0 24v504q1 7 60 56q59 -49 60 -56v-384q0 -5 -120 -120zM0 692v500l120 -116v-384q0 -5 -60 -60q-5 0 -60 60zM20 0q0 5 120 120h384q7 -1 56 -60q-49 -59 -56 -60h-504zM20 1216h504q7 -1 56 -60q-49 -59 -56 -60h-384q-5 0 -120 120zM84 608q27 35 52 60h392 q25 -25 52 -60q-27 -35 -52 -60h-392q-25 25 -52 60zM544 140v384q1 7 60 56q59 -49 60 -56v-384q-1 -7 -60 -56q-59 49 -60 56zM544 692v384q1 7 60 56q59 -49 60 -56v-384q-1 -7 -60 -56q-59 49 -60 56z" />
<glyph unicode="C" horiz-adv-x="707" d="M0 24v504q1 7 60 56q59 -49 60 -56v-384q0 -5 -120 -120zM0 692v500l120 -116v-384q0 -5 -60 -60q-5 0 -60 60zM20 0q0 5 120 120h384q7 -1 56 -60q-49 -59 -56 -60h-504zM20 1216h504q7 -1 56 -60q-49 -59 -56 -60h-384q-5 0 -120 120z" />
<glyph unicode="D" horiz-adv-x="711" d="M0 24v504q1 7 60 56q59 -49 60 -56v-384q0 -5 -120 -120zM0 692v500l120 -116v-384q0 -5 -60 -60q-5 0 -60 60zM20 0q0 5 120 120h384q7 -1 56 -60q-49 -59 -56 -60h-504zM20 1216h504q7 -1 56 -60q-49 -59 -56 -60h-384q-5 0 -120 120zM544 140v384q1 7 60 56 q59 -49 60 -56v-384q-1 -7 -60 -56q-59 49 -60 56zM544 692v384q1 7 60 56q59 -49 60 -56v-384q-1 -7 -60 -56q-59 49 -60 56z" />
<glyph unicode="E" horiz-adv-x="707" d="M0 24v504q1 7 60 56q59 -49 60 -56v-384q0 -5 -120 -120zM0 692v500l120 -116v-384q0 -5 -60 -60q-5 0 -60 60zM20 0q0 5 120 120h384q7 -1 56 -60q-49 -59 -56 -60h-504zM20 1216h504q7 -1 56 -60q-49 -59 -56 -60h-384q-5 0 -120 120zM84 608q49 59 56 60h384 q7 -1 56 -60q-49 -59 -56 -60h-384q-7 1 -56 60z" />
<glyph unicode="F" horiz-adv-x="702" d="M0 0v504q1 7 60 56q59 -49 60 -56v-384q0 -5 -120 -120zM0 668v500l120 -116v-384q0 -5 -60 -60q-5 0 -60 60zM20 1192h504q7 -1 56 -60q-49 -59 -56 -60h-384q-5 0 -120 120zM84 584q49 59 56 60h384q7 -1 56 -60q-49 -59 -56 -60h-384q-7 1 -56 60z" />
<glyph unicode="G" horiz-adv-x="780" d="M0 24v504q1 7 60 56q59 -49 60 -56v-384q0 -5 -120 -120zM0 692v500l120 -116v-384q0 -5 -60 -60q-5 0 -60 60zM20 0q0 5 120 120h380q5 0 60 -60q0 -5 -60 -60h-500zM20 1216h504q7 -1 56 -60q-49 -59 -56 -60h-384q-5 0 -120 120zM84 608q49 59 56 60h384q7 -1 56 -60 q-49 -59 -56 -60h-384q-7 1 -56 60zM544 140v384q1 7 60 56q59 -49 60 -56v-384q-1 -7 -60 -56q-59 49 -60 56z" />
<glyph unicode="H" horiz-adv-x="775" d="M0 0v504q1 7 60 56q59 -49 60 -56v-384q0 -5 -120 -120zM0 664v504q5 0 120 -120v-384q-1 -7 -60 -56q-59 49 -60 56zM84 584q27 35 52 60h392q25 -25 52 -60q-27 -35 -52 -60h-392q-25 25 -52 60zM544 120v380q0 5 60 60q5 0 60 -60v-500q-5 0 -120 120zM544 668v380 q0 5 120 120v-500q0 -5 -60 -60q-5 0 -60 60z" />
<glyph unicode="I" horiz-adv-x="200" d="M0 0v500q0 5 60 60q5 0 60 -60v-380q0 -5 -120 -120zM0 672v524q5 0 120 -120v-404q-1 -7 -60 -56q-59 49 -60 56z" />
<glyph unicode="J" horiz-adv-x="809" d="M0 24v500q0 5 60 60q5 0 60 -60v-380q0 -5 -120 -120zM20 0q0 5 120 120h380q5 0 60 -60q0 -5 -60 -60h-500zM544 140v384q1 7 60 56q59 -49 60 -56v-384q-1 -7 -60 -56q-59 49 -60 56zM544 692v380q0 5 120 120v-500q0 -5 -60 -60q-5 0 -60 60z" />
<glyph unicode="K" horiz-adv-x="794" d="M0 0v504q1 7 60 56q59 -49 60 -56v-384q0 -5 -120 -120zM0 664v504l120 -116v-388q-1 -7 -60 -56q-59 49 -60 56zM84 584q49 59 56 60h384q7 -1 56 -60q-49 -59 -56 -60h-384q-7 1 -56 60zM268 404v72q1 8 8 8h64q23 0 100 -88q27 -22 224 -228v-168h-4q0 6 -60 60 q-274 276 -332 344zM544 668v384l120 116v-500q0 -5 -60 -60q-5 0 -60 60z" />
<glyph unicode="L" horiz-adv-x="707" d="M0 24v504q1 7 60 56q59 -49 60 -56v-384q0 -5 -120 -120zM0 688v504l120 -116v-388q-1 -7 -60 -56q-59 49 -60 56zM20 0q0 5 120 120h384q5 0 120 -120h-624z" />
<glyph unicode="M" d="M0 0v504q1 7 60 56q59 -49 60 -56v-384q0 -5 -120 -120zM0 664v504l120 -116v-388q-1 -7 -60 -56q-59 49 -60 56zM20 1192h620l-116 -120h-384q-5 0 -120 120zM280 800v248h108v-248q0 -6 -56 -56zM544 116v384q0 5 60 60q5 0 60 -60v-500zM544 668v384l120 116v-500 q0 -5 -60 -60q-5 0 -60 60z" />
<glyph unicode="N" horiz-adv-x="804" d="M0 0v504q1 7 60 56q59 -49 60 -56v-384q0 -5 -120 -120zM0 664v504l120 -116v-388q-1 -7 -60 -56q-59 49 -60 56zM156 868v168h4q0 -5 184 -184q168 -169 168 -176v-72q0 -8 -8 -8h-64q-23 0 -104 92q-5 0 -180 180zM544 116v384q0 5 60 60q5 0 60 -60v-500zM544 668v384 l120 116v-500q0 -5 -60 -60q-5 0 -60 60z" />
<glyph unicode="O" horiz-adv-x="804" d="M0 24v504q1 7 60 56q59 -49 60 -56v-384q0 -5 -120 -120zM0 688v504l120 -116v-388q-1 -7 -60 -56q-59 49 -60 56zM20 0q0 5 120 120h384q5 0 120 -120h-624zM20 1216h620l-116 -120h-384q-5 0 -120 120zM544 140v384q0 5 60 60q5 0 60 -60v-500zM544 692v384l120 116 v-500q0 -5 -60 -60q-5 0 -60 60z" />
<glyph unicode="P" horiz-adv-x="804" d="M0 0v504q1 7 60 56q59 -49 60 -56v-384q0 -5 -120 -120zM0 664v504l120 -116v-388q-1 -7 -60 -56q-59 49 -60 56zM20 1192h620l-116 -120h-384q-5 0 -120 120zM84 584q49 59 56 60h384q7 -1 56 -60q-49 -59 -56 -60h-384q-7 1 -56 60zM544 668v384l120 116v-500 q0 -5 -60 -60q-5 0 -60 60z" />
<glyph unicode="Q" d="M0 24v504q1 7 60 56q59 -49 60 -56v-384q0 -5 -120 -120zM0 688v504l120 -116v-388q-1 -7 -60 -56q-59 49 -60 56zM20 0q0 5 120 120h384q5 0 120 -120h-624zM20 1216h620l-116 -120h-384q-5 0 -120 120zM260 420h4l-4 8v64q1 8 8 8h64q23 0 140 -128q5 0 44 -44v-168h-4 q0 5 -184 184q-68 70 -68 76zM544 140v384q0 5 60 60q5 0 60 -60v-500zM544 692v384l120 116v-500q0 -5 -60 -60q-5 0 -60 60z" />
<glyph unicode="R" horiz-adv-x="804" d="M0 0v504q1 7 60 56q59 -49 60 -56v-384q0 -5 -120 -120zM0 664v504l120 -116v-388q-1 -7 -60 -56q-59 49 -60 56zM20 1192h620l-116 -120h-384q-5 0 -120 120zM84 584q49 59 56 60h384q7 -1 56 -60q-49 -59 -56 -60h-384q-7 1 -56 60zM268 404v72q1 8 8 8h64 q23 0 100 -88q27 -22 224 -228v-168h-4q0 6 -60 60q-274 276 -332 344zM544 668v384l120 116v-500q0 -5 -60 -60q-5 0 -60 60z" />
<glyph unicode="S" horiz-adv-x="804" d="M0 688v504l120 -116v-388q-1 -7 -60 -56q-59 49 -60 56zM20 0q0 5 120 120h384q5 0 120 -120h-624zM20 1216h620l-116 -120h-384q-5 0 -120 120zM84 608q49 59 56 60h384q7 -1 56 -60q-49 -59 -56 -60h-384q-7 1 -56 60zM544 140v384q0 5 60 60q5 0 60 -60v-500z" />
<glyph unicode="T" horiz-adv-x="707" d="M0 1200h620l-116 -120h-384q-5 0 -120 120zM252 56v384q1 7 60 56q59 -49 60 -56v-384q-1 -7 -60 -56q-59 49 -60 56zM252 600v384q1 7 60 56q59 -49 60 -56v-384q-1 -7 -60 -56q-59 49 -60 56z" />
<glyph unicode="U" horiz-adv-x="804" d="M0 24v504q1 7 60 56q59 -49 60 -56v-384q0 -5 -120 -120zM0 688v504l120 -116v-388q-1 -7 -60 -56q-59 49 -60 56zM20 0q0 5 120 120h384q5 0 120 -120h-624zM544 140v384q0 5 60 60q5 0 60 -60v-500zM544 692v384l120 116v-500q0 -5 -60 -60q-5 0 -60 60z" />
<glyph unicode="V" horiz-adv-x="780" d="M0 632v504l120 -116v-388q-1 -7 -60 -56q-59 49 -60 56zM28 352q32 117 40 160q25 -33 256 -432q-13 -60 -24 -80q-96 12 -96 52q-70 106 -176 300zM340 80q231 399 256 432q0 -9 40 -164q-176 -308 -200 -332q-63 -16 -76 -16v4q-20 72 -20 76zM544 636v384l120 116 v-500q0 -5 -60 -60q-5 0 -60 60z" />
<glyph unicode="W" d="M0 24v504q1 7 60 56q59 -49 60 -56v-388zM0 688v504q5 0 120 -120v-384q-1 -7 -60 -56q-59 49 -60 56zM20 0q0 5 120 120h384l116 -120h-620zM280 140v252q0 6 52 52q6 -1 56 -56v-248h-108zM544 140v384q0 5 60 60q5 0 60 -60v-500zM544 692v384l120 116v-500 q0 -5 -60 -60q-5 0 -60 60z" />
<glyph unicode="X" horiz-adv-x="770" d="M0 83q185 327 204 351l80 16q25 -65 25 -83q-183 -320 -205 -350q-72 -13 -79 -17q-25 66 -25 83zM0 1017q0 7 25 75q87 -16 92 -29l192 -342v-4q0 -7 -25 -75q-96 14 -96 38q-177 303 -188 337zM75 555q51 61 58 62h401q7 -1 58 -62q-51 -62 -58 -63h-401q-7 1 -58 63z M354 371v4q0 7 25 75q96 -13 96 -37q177 -304 188 -338q0 -7 -25 -75q-87 17 -92 29zM354 726q183 320 205 350q72 12 79 16q25 -65 25 -83q-185 -326 -204 -350l-80 -17q-25 66 -25 84z" />
<glyph unicode="Y" horiz-adv-x="746" d="M0 1017q0 7 25 75q87 -16 92 -29l192 -342v-4q0 -7 -25 -75q-96 14 -96 38q-177 303 -188 337zM271 129v440q1 8 60 64q59 -56 60 -64v-576q-5 0 -120 136zM354 726q183 320 205 350q72 12 79 16q25 -65 25 -83q-185 -326 -204 -350l-80 -17q-25 66 -25 84z" />
<glyph unicode="Z" horiz-adv-x="760" d="M0 0q0 5 120 120h384q5 0 120 -120h-624zM0 1166h620l-116 -120h-384q-5 0 -120 120zM60 236q177 313 196 336l76 16q24 -63 24 -80q-175 -307 -196 -336q-69 -12 -76 -16q-24 63 -24 80zM332 708q175 307 196 336q69 12 76 16q24 -63 24 -80q-177 -313 -196 -336 l-76 -16q-24 63 -24 80z" />
<glyph unicode="[" horiz-adv-x="463" d="M0 24v504q1 7 60 56q59 -49 60 -56v-384q0 -5 -120 -120zM0 688v504l120 -116v-388q-1 -7 -60 -56q-59 49 -60 56zM20 0q0 5 120 120h192q5 0 60 -60q0 -5 -60 -60h-312zM20 1216h312q5 0 60 -60q0 -5 -60 -60h-192q-5 0 -120 120z" />
<glyph unicode="\" horiz-adv-x="755" d="M0 1117q0 19 28 92q8 -5 87 -18q24 -34 226 -388q0 -20 -27 -92l-88 18q-22 27 -226 388zM392 406q0 20 28 92l88 -18q21 -27 226 -388q0 -19 -28 -92q-8 5 -88 18q-24 34 -226 388z" />
<glyph unicode="]" horiz-adv-x="507" d="M0 60q0 5 60 60h192q5 0 120 -120h-312q-5 0 -60 60zM0 1156q0 5 60 60h312q0 -5 -120 -120h-192q-5 0 -60 60zM272 144v384q1 7 60 56q59 -49 60 -56v-504q-5 0 -120 120zM272 688v388l120 116v-504q-1 -7 -60 -56q-59 49 -60 56z" />
<glyph unicode="^" horiz-adv-x="755" d="M107 1091v76q1 6 128 128h80v-80q-3 -8 -168 -168zM327 1382v172q0 5 60 60h56v-232q0 -5 -60 -60zM464 1215v80h84q6 -1 124 -124v-84q0 -5 -40 -40q-8 3 -168 168z" />
<glyph unicode="_" horiz-adv-x="658" d="M20 -200q0 5 120 120h384q5 0 120 -120h-624z" />
<glyph unicode="`" horiz-adv-x="653" d="M199 1355q0 5 44 44h76q6 -1 128 -128v-84h-80q-8 3 -168 168z" />
<glyph unicode="a" horiz-adv-x="731" d="M0 0v500q0 5 60 60q5 0 60 -60v-380q0 -5 -120 -120zM0 668v384q1 7 60 56q59 -49 60 -56v-384q-1 -7 -60 -56q-59 49 -60 56zM84 584q27 35 52 60h392q25 -25 52 -60q-27 -35 -52 -60h-392q-25 25 -52 60zM84 1132q49 59 56 60h384q7 -1 56 -60q-49 -59 -56 -60h-384 q-7 1 -56 60zM544 120v380q0 5 60 60q5 0 60 -60v-500q-5 0 -120 120zM544 668v384q1 7 60 56q59 -49 60 -56v-384q-1 -7 -60 -56q-59 49 -60 56z" />
<glyph unicode="b" horiz-adv-x="755" d="M0 24v504q1 7 60 56q59 -49 60 -56v-384q0 -5 -120 -120zM0 692v500l120 -116v-384q0 -5 -60 -60q-5 0 -60 60zM20 0q0 5 120 120h384q7 -1 56 -60q-49 -59 -56 -60h-504zM20 1216h504q7 -1 56 -60q-49 -59 -56 -60h-384q-5 0 -120 120zM84 608q27 35 52 60h392 q25 -25 52 -60q-27 -35 -52 -60h-392q-25 25 -52 60zM544 140v384q1 7 60 56q59 -49 60 -56v-384q-1 -7 -60 -56q-59 49 -60 56zM544 692v384q1 7 60 56q59 -49 60 -56v-384q-1 -7 -60 -56q-59 49 -60 56z" />
<glyph unicode="c" horiz-adv-x="677" d="M0 24v504q1 7 60 56q59 -49 60 -56v-384q0 -5 -120 -120zM0 692v500l120 -116v-384q0 -5 -60 -60q-5 0 -60 60zM20 0q0 5 120 120h384q7 -1 56 -60q-49 -59 -56 -60h-504zM20 1216h504q7 -1 56 -60q-49 -59 -56 -60h-384q-5 0 -120 120z" />
<glyph unicode="d" horiz-adv-x="755" d="M0 24v504q1 7 60 56q59 -49 60 -56v-384q0 -5 -120 -120zM0 692v500l120 -116v-384q0 -5 -60 -60q-5 0 -60 60zM20 0q0 5 120 120h384q7 -1 56 -60q-49 -59 -56 -60h-504zM20 1216h504q7 -1 56 -60q-49 -59 -56 -60h-384q-5 0 -120 120zM544 140v384q1 7 60 56 q59 -49 60 -56v-384q-1 -7 -60 -56q-59 49 -60 56zM544 692v384q1 7 60 56q59 -49 60 -56v-384q-1 -7 -60 -56q-59 49 -60 56z" />
<glyph unicode="e" horiz-adv-x="653" d="M0 24v504q1 7 60 56q59 -49 60 -56v-384q0 -5 -120 -120zM0 692v500l120 -116v-384q0 -5 -60 -60q-5 0 -60 60zM20 0q0 5 120 120h384q7 -1 56 -60q-49 -59 -56 -60h-504zM20 1216h504q7 -1 56 -60q-49 -59 -56 -60h-384q-5 0 -120 120zM84 608q49 59 56 60h384 q7 -1 56 -60q-49 -59 -56 -60h-384q-7 1 -56 60z" />
<glyph unicode="f" horiz-adv-x="668" d="M0 0v504q1 7 60 56q59 -49 60 -56v-384q0 -5 -120 -120zM0 668v500l120 -116v-384q0 -5 -60 -60q-5 0 -60 60zM20 1192h504q7 -1 56 -60q-49 -59 -56 -60h-384q-5 0 -120 120zM84 584q49 59 56 60h384q7 -1 56 -60q-49 -59 -56 -60h-384q-7 1 -56 60z" />
<glyph unicode="g" horiz-adv-x="785" d="M0 24v504q1 7 60 56q59 -49 60 -56v-384q0 -5 -120 -120zM0 692v500l120 -116v-384q0 -5 -60 -60q-5 0 -60 60zM20 0q0 5 120 120h380q5 0 60 -60q0 -5 -60 -60h-500zM20 1216h504q7 -1 56 -60q-49 -59 -56 -60h-384q-5 0 -120 120zM84 608q49 59 56 60h384q7 -1 56 -60 q-49 -59 -56 -60h-384q-7 1 -56 60zM544 140v384q1 7 60 56q59 -49 60 -56v-384q-1 -7 -60 -56q-59 49 -60 56z" />
<glyph unicode="h" horiz-adv-x="770" d="M0 0v504q1 7 60 56q59 -49 60 -56v-384q0 -5 -120 -120zM0 664v504q5 0 120 -120v-384q-1 -7 -60 -56q-59 49 -60 56zM84 584q27 35 52 60h392q25 -25 52 -60q-27 -35 -52 -60h-392q-25 25 -52 60zM544 120v380q0 5 60 60q5 0 60 -60v-500q-5 0 -120 120zM544 668v380 q0 5 120 120v-500q0 -5 -60 -60q-5 0 -60 60z" />
<glyph unicode="i" horiz-adv-x="205" d="M0 0v500q0 5 60 60q5 0 60 -60v-380q0 -5 -120 -120zM0 672v524q5 0 120 -120v-404q-1 -7 -60 -56q-59 49 -60 56z" />
<glyph unicode="j" horiz-adv-x="765" d="M0 24v500q0 5 60 60q5 0 60 -60v-380q0 -5 -120 -120zM20 0q0 5 120 120h380q5 0 60 -60q0 -5 -60 -60h-500zM544 140v384q1 7 60 56q59 -49 60 -56v-384q-1 -7 -60 -56q-59 49 -60 56zM544 692v380q0 5 120 120v-500q0 -5 -60 -60q-5 0 -60 60z" />
<glyph unicode="k" horiz-adv-x="780" d="M0 0v504q1 7 60 56q59 -49 60 -56v-384q0 -5 -120 -120zM0 664v504l120 -116v-388q-1 -7 -60 -56q-59 49 -60 56zM84 584q49 59 56 60h384q7 -1 56 -60q-49 -59 -56 -60h-384q-7 1 -56 60zM268 404v72q1 8 8 8h64q23 0 100 -88q27 -22 224 -228v-168h-4q0 6 -60 60 q-274 276 -332 344zM544 668v384l120 116v-500q0 -5 -60 -60q-5 0 -60 60z" />
<glyph unicode="l" horiz-adv-x="716" d="M0 24v504q1 7 60 56q59 -49 60 -56v-384q0 -5 -120 -120zM0 688v504l120 -116v-388q-1 -7 -60 -56q-59 49 -60 56zM20 0q0 5 120 120h384q5 0 120 -120h-624z" />
<glyph unicode="m" horiz-adv-x="750" d="M0 0v504q1 7 60 56q59 -49 60 -56v-384q0 -5 -120 -120zM0 664v504l120 -116v-388q-1 -7 -60 -56q-59 49 -60 56zM20 1192h620l-116 -120h-384q-5 0 -120 120zM280 800v248h108v-248q0 -6 -56 -56zM544 116v384q0 5 60 60q5 0 60 -60v-500zM544 668v384l120 116v-500 q0 -5 -60 -60q-5 0 -60 60z" />
<glyph unicode="n" horiz-adv-x="760" d="M0 0v504q1 7 60 56q59 -49 60 -56v-384q0 -5 -120 -120zM0 664v504l120 -116v-388q-1 -7 -60 -56q-59 49 -60 56zM156 868v168h4q0 -5 184 -184q168 -169 168 -176v-72q0 -8 -8 -8h-64q-23 0 -104 92q-5 0 -180 180zM544 116v384q0 5 60 60q5 0 60 -60v-500zM544 668v384 l120 116v-500q0 -5 -60 -60q-5 0 -60 60z" />
<glyph unicode="o" horiz-adv-x="755" d="M0 24v504q1 7 60 56q59 -49 60 -56v-384q0 -5 -120 -120zM0 688v504l120 -116v-388q-1 -7 -60 -56q-59 49 -60 56zM20 0q0 5 120 120h384q5 0 120 -120h-624zM20 1216h620l-116 -120h-384q-5 0 -120 120zM544 140v384q0 5 60 60q5 0 60 -60v-500zM544 692v384l120 116 v-500q0 -5 -60 -60q-5 0 -60 60z" />
<glyph unicode="p" horiz-adv-x="765" d="M0 0v504q1 7 60 56q59 -49 60 -56v-384q0 -5 -120 -120zM0 664v504l120 -116v-388q-1 -7 -60 -56q-59 49 -60 56zM20 1192h620l-116 -120h-384q-5 0 -120 120zM84 584q49 59 56 60h384q7 -1 56 -60q-49 -59 -56 -60h-384q-7 1 -56 60zM544 668v384l120 116v-500 q0 -5 -60 -60q-5 0 -60 60z" />
<glyph unicode="q" horiz-adv-x="775" d="M0 24v504q1 7 60 56q59 -49 60 -56v-384q0 -5 -120 -120zM0 688v504l120 -116v-388q-1 -7 -60 -56q-59 49 -60 56zM20 0q0 5 120 120h384q5 0 120 -120h-624zM20 1216h620l-116 -120h-384q-5 0 -120 120zM260 420h4l-4 8v64q1 8 8 8h64q23 0 140 -128q5 0 44 -44v-168h-4 q0 5 -184 184q-68 70 -68 76zM544 140v384q0 5 60 60q5 0 60 -60v-500zM544 692v384l120 116v-500q0 -5 -60 -60q-5 0 -60 60z" />
<glyph unicode="r" horiz-adv-x="765" d="M0 0v504q1 7 60 56q59 -49 60 -56v-384q0 -5 -120 -120zM0 664v504l120 -116v-388q-1 -7 -60 -56q-59 49 -60 56zM20 1192h620l-116 -120h-384q-5 0 -120 120zM84 584q49 59 56 60h384q7 -1 56 -60q-49 -59 -56 -60h-384q-7 1 -56 60zM268 404v72q1 8 8 8h64 q23 0 100 -88q27 -22 224 -228v-168h-4q0 6 -60 60q-274 276 -332 344zM544 668v384l120 116v-500q0 -5 -60 -60q-5 0 -60 60z" />
<glyph unicode="s" horiz-adv-x="775" d="M0 688v504l120 -116v-388q-1 -7 -60 -56q-59 49 -60 56zM20 0q0 5 120 120h384q5 0 120 -120h-624zM20 1216h620l-116 -120h-384q-5 0 -120 120zM84 608q49 59 56 60h384q7 -1 56 -60q-49 -59 -56 -60h-384q-7 1 -56 60zM544 140v384q0 5 60 60q5 0 60 -60v-500z" />
<glyph unicode="t" horiz-adv-x="697" d="M0 1200h620l-116 -120h-384q-5 0 -120 120zM252 56v384q1 7 60 56q59 -49 60 -56v-384q-1 -7 -60 -56q-59 49 -60 56zM252 600v384q1 7 60 56q59 -49 60 -56v-384q-1 -7 -60 -56q-59 49 -60 56z" />
<glyph unicode="u" horiz-adv-x="770" d="M0 24v504q1 7 60 56q59 -49 60 -56v-384q0 -5 -120 -120zM0 688v504l120 -116v-388q-1 -7 -60 -56q-59 49 -60 56zM20 0q0 5 120 120h384q5 0 120 -120h-624zM544 140v384q0 5 60 60q5 0 60 -60v-500zM544 692v384l120 116v-500q0 -5 -60 -60q-5 0 -60 60z" />
<glyph unicode="v" horiz-adv-x="765" d="M0 632v504l120 -116v-388q-1 -7 -60 -56q-59 49 -60 56zM28 352q32 117 40 160q25 -33 256 -432q-13 -60 -24 -80q-96 12 -96 52q-70 106 -176 300zM340 80q231 399 256 432q0 -9 40 -164q-176 -308 -200 -332q-63 -16 -76 -16v4q-20 72 -20 76zM544 636v384l120 116 v-500q0 -5 -60 -60q-5 0 -60 60z" />
<glyph unicode="w" horiz-adv-x="770" d="M0 24v504q1 7 60 56q59 -49 60 -56v-388zM0 688v504q5 0 120 -120v-384q-1 -7 -60 -56q-59 49 -60 56zM20 0q0 5 120 120h384l116 -120h-620zM280 140v252q0 6 52 52q6 -1 56 -56v-248h-108zM544 140v384q0 5 60 60q5 0 60 -60v-500zM544 692v384l120 116v-500 q0 -5 -60 -60q-5 0 -60 60z" />
<glyph unicode="x" horiz-adv-x="789" d="M0 83q185 327 204 351l80 16q25 -65 25 -83q-183 -320 -205 -350q-72 -13 -79 -17q-25 66 -25 83zM0 1017q0 7 25 75q87 -16 92 -29l192 -342v-4q0 -7 -25 -75q-96 14 -96 38q-177 303 -188 337zM75 555q51 61 58 62h401q7 -1 58 -62q-51 -62 -58 -63h-401q-7 1 -58 63z M354 371v4q0 7 25 75q96 -13 96 -37q177 -304 188 -338q0 -7 -25 -75q-87 17 -92 29zM354 726q183 320 205 350q72 12 79 16q25 -65 25 -83q-185 -326 -204 -350l-80 -17q-25 66 -25 84z" />
<glyph unicode="y" horiz-adv-x="770" d="M0 1017q0 7 25 75q87 -16 92 -29l192 -342v-4q0 -7 -25 -75q-96 14 -96 38q-177 303 -188 337zM271 129v440q1 8 60 64q59 -56 60 -64v-576q-5 0 -120 136zM354 726q183 320 205 350q72 12 79 16q25 -65 25 -83q-185 -326 -204 -350l-80 -17q-25 66 -25 84z" />
<glyph unicode="z" horiz-adv-x="727" d="M0 0q0 5 120 120h384q5 0 120 -120h-624zM0 1166h620l-116 -120h-384q-5 0 -120 120zM60 236q177 313 196 336l76 16q24 -63 24 -80q-175 -307 -196 -336q-69 -12 -76 -16q-24 63 -24 80zM332 708q175 307 196 336q69 12 76 16q24 -63 24 -80q-177 -313 -196 -336 l-76 -16q-24 63 -24 80z" />
<glyph unicode="{" horiz-adv-x="785" d="M6 612v56h232q5 0 60 -60l-60 -56h-172q-5 0 -60 60zM249 24v504q1 7 60 56q59 -49 60 -56v-384q0 -5 -120 -120zM249 688v504l120 -116v-388q-1 -7 -60 -56q-59 49 -60 56zM269 0q0 5 120 120h192q5 0 60 -60q0 -5 -60 -60h-312zM269 1216h312q5 0 60 -60q0 -5 -60 -60 h-192q-5 0 -120 120z" />
<glyph unicode="|" horiz-adv-x="502" d="M194 144v439q0 6 60 69q5 0 60 -69v-578q-5 0 -120 139zM194 777v439q0 6 120 139v-578q0 -6 -60 -69q-5 0 -60 69z" />
<glyph unicode="}" horiz-adv-x="794" d="M6 60q55 60 60 60h192q120 -115 120 -120h-312q-60 55 -60 60zM6 1156q55 60 60 60h312q-115 -120 -120 -120h-192q-60 55 -60 60zM278 144v384q1 7 60 56q59 -49 60 -56v-504q-120 115 -120 120zM278 688v388l120 116v-504q-1 -7 -60 -56q-59 49 -60 56zM349 608 q55 60 60 60h232v-56q-55 -60 -60 -60h-172z" />
<glyph unicode="~" horiz-adv-x="804" d="M5 526v76q1 6 128 128h80v-80q-3 -8 -168 -168zM245 645v80h84q6 -1 124 -124v-84q0 -5 -40 -40q-8 3 -168 168zM484 513v72q1 6 132 132h72q5 0 44 -44q-3 -8 -168 -168h-72q-8 0 -8 8z" />
<glyph unicode="&#xa1;" horiz-adv-x="253" d="M-4 1264v4q50 60 72 60h24q22 0 72 -60v-4q-50 -60 -72 -60h-24q-22 0 -72 60zM0 126v384q55 60 60 60q60 -55 60 -60v-500zM0 682v380q115 120 120 120v-500q-55 -60 -60 -60q-60 55 -60 60z" />
<glyph unicode="&#xa2;" horiz-adv-x="1009" d="M209 451v384q1 7 60 56q59 -49 60 -56v-384q-1 -7 -60 -56q-59 49 -60 56zM293 367q49 59 56 60h384q7 -1 56 -60q-49 -59 -56 -60h-384q-7 1 -56 60zM293 915q27 35 52 60h392q25 -25 52 -60q-27 -35 -52 -60h-392q-25 25 -52 60zM306 52v76q1 6 128 128h80v-80 q-3 -8 -168 -168zM635 1023v72q1 6 132 132h72q5 0 44 -44q-3 -8 -168 -168h-72q-8 0 -8 8z" />
<glyph unicode="&#xa3;" horiz-adv-x="775" d="M-253 546v56q55 60 60 60h172l60 -56q-55 -60 -60 -60h-232zM0 144v384q1 7 60 56q59 -49 60 -56v-384q-1 -7 -60 -56q-59 49 -60 56zM0 692v384q1 7 60 56q59 -49 60 -56v-384q-1 -7 -60 -56q-59 49 -60 56zM82 56q55 60 60 60h232v-56q-55 -60 -60 -60h-172zM84 1156 q49 59 56 60h384q7 -1 56 -60q-49 -59 -56 -60h-384q-7 1 -56 60zM116 592q55 60 60 60h232v-56q-55 -60 -60 -60h-172zM486 1010q0 6 3 12.5t11 13.5l69 72q6 6 13 9t14 3q6 0 12.5 -3t12.5 -9l71 -76q5 -4 7 -10t2 -14q-1 -9 -3 -15t-8 -12l-71 -76q-12 -11 -16 -13.5 t-7 -2.5q-10 0 -16.5 2.5t-10.5 8.5l-75 87q-4 4 -6 9.5t-2 13.5z" />
<glyph unicode="&#xa4;" horiz-adv-x="902" d="M68 1116q0 5 44 44h76q6 -1 128 -128v-84h-80q-8 3 -168 168zM93 469v76q1 6 128 128h80v-80q-3 -8 -168 -168zM264 795v55q0 6 64 64q6 0 65 -64v-55q0 -6 -65 -65q-5 0 -64 65zM350 700q0 6 64 65h56q5 0 64 -65q0 -5 -64 -64h-56q-5 0 -64 64zM354 936v4q53 64 77 64 h26q23 0 77 -64v-4q-54 -64 -77 -64h-26q-24 0 -77 64zM491 803v26q0 24 64 77h4q65 -53 65 -77v-26q0 -23 -65 -77h-4q-64 54 -64 77zM587 596v80h84q6 -1 124 -124v-84q0 -5 -40 -40q-8 3 -168 168zM587 957v72q1 6 132 132h72q5 0 44 -44q-3 -8 -168 -168h-72q-8 0 -8 8z " />
<glyph unicode="&#xa5;" horiz-adv-x="838" d="M-68 262v48q0 5 64 64h172q5 0 60 -60q0 -5 -60 -60h-228q-8 0 -8 8zM-68 452v48q0 5 64 64h172q5 0 60 -60q0 -5 -60 -60h-228q-8 0 -8 8zM0 1017q0 7 25 75q87 -16 92 -29l192 -342v-4q0 -7 -25 -75q-96 14 -96 38q-177 303 -188 337zM271 129v440q1 8 60 64 q59 -56 60 -64v-576q-5 0 -120 136zM354 726q183 320 205 350q72 12 79 16q25 -65 25 -83q-185 -326 -204 -350l-80 -17q-25 66 -25 84zM452 314q0 5 60 60h172q5 0 60 -60v-60h-232q-5 0 -60 60zM452 504q0 5 60 60h172q5 0 60 -60v-60h-232q-5 0 -60 60z" />
<glyph unicode="&#xa6;" horiz-adv-x="1014" d="M197 319v384q1 7 60 56q59 -49 60 -56v-384q-1 -7 -60 -56q-59 49 -60 56zM197 992v384q1 7 60 56q59 -49 60 -56v-384q-1 -7 -60 -56q-59 49 -60 56zM202 35q1 7 60 56q59 -49 60 -56v-384q-1 -7 -60 -56q-59 49 -60 56v384z" />
<glyph unicode="&#xa7;" horiz-adv-x="580" d="M102 420v212q0 5 32 32l28 -32v-212q0 -5 -32 -32zM134 824v212q0 5 32 32l28 -32v-212q0 -5 -32 -32zM138 76l32 28h216q5 0 32 -32l-32 -28h-216q-5 0 -32 32zM142 676l32 28h216q5 0 32 -32l-32 -28h-216q-5 0 -32 32zM146 376q0 5 32 32h208q5 0 32 -32q0 -5 -32 -32 h-208q-5 0 -32 32zM170 480l32 28h216q5 0 32 -32l-32 -28h-216q-5 0 -32 32zM174 1080l32 28h216q5 0 32 -32l-32 -28h-216q-5 0 -32 32zM178 780q0 5 32 32h208q5 0 32 -32q0 -5 -32 -32h-208q-5 0 -32 32zM402 112v216q0 5 32 32l28 -32v-216q0 -6 -28 -28h-4 q-6 0 -28 28zM434 516v216q0 5 32 32l28 -32v-216q0 -6 -28 -28h-4q-6 0 -28 28z" />
<glyph unicode="&#xa8;" horiz-adv-x="1024" d="M209 1263q0 13 14 26l71 72q13 12 25 12q11 0 27 -14l69 -73q10 -14 10 -25q0 -13 -12 -27l-69 -75q-17 -17 -25 -17q-14 0 -25 12l-76 86q-9 12 -9 23zM574 1263q0 13 14 26l71 72q13 12 25 12q11 0 27 -13l69 -74q10 -14 10 -25q0 -13 -12 -26l-69 -76q-17 -17 -25 -17 q-14 0 -25 12l-76 87q-9 11 -9 22z" />
<glyph unicode="&#xa9;" horiz-adv-x="906" d="M0 24v508q25 25 60 52q35 -27 60 -52v-392zM0 684v508l120 -112v-396q-25 -25 -60 -52q-35 27 -60 52zM20 0q0 5 120 120h192q5 0 60 -60q0 -5 -60 -60h-312zM20 1216h312q5 0 60 -60q0 -5 -60 -60h-192q-5 0 -120 120zM236 336v212q0 5 32 32l28 -32v-212q0 -5 -32 -32z M236 628v212q0 5 32 32l28 -32v-212q0 -5 -32 -32zM276 296l32 28h216q5 0 32 -32l-32 -28h-216q-5 0 -32 32zM276 884l32 28h216q5 0 32 -32l-32 -28h-216q-5 0 -32 32zM416 60q0 5 60 60h192q5 0 120 -120h-312q-5 0 -60 60zM416 1156q0 5 60 60h312q0 -5 -120 -120h-192 q-5 0 -60 60zM688 144v380q0 5 60 60q5 0 60 -60v-500q-5 0 -120 120zM688 692v384l120 116v-500q0 -5 -60 -60q-5 0 -60 60z" />
<glyph unicode="&#xaa;" horiz-adv-x="648" />
<glyph unicode="&#xab;" horiz-adv-x="944" d="M17 575v48q0 5 64 64h172q5 0 60 -60q0 -5 -60 -60h-228q-8 0 -8 8zM353 460v80h84q6 -1 124 -124v-84q0 -5 -40 -40q-8 3 -168 168zM353 708v72q1 6 132 132h72q5 0 44 -44q-3 -8 -168 -168h-72q-8 0 -8 8zM613 460v80h84q6 -1 124 -124v-84q0 -5 -40 -40q-8 3 -168 168 zM613 708v72q1 6 132 132h72q5 0 44 -44q-3 -8 -168 -168h-72q-8 0 -8 8z" />
<glyph unicode="&#xac;" horiz-adv-x="697" d="M0 608q49 59 56 60h384q7 -1 56 -60q-49 -59 -56 -60h-384q-7 1 -56 60zM481 292v220q0 22 60 72q5 0 60 -60v-172q0 -5 -60 -60h-60z" />
<glyph unicode="&#xad;" horiz-adv-x="670" d="M90 608q49 59 56 60h384q7 -1 56 -60q-49 -59 -56 -60h-384q-7 1 -56 60z" />
<glyph unicode="&#xae;" horiz-adv-x="902" d="M0 24v508q25 25 60 52q35 -27 60 -52v-392zM0 684v508l120 -112v-396q-25 -25 -60 -52q-35 27 -60 52zM20 0q0 5 120 120h192q5 0 60 -60q0 -5 -60 -60h-312zM20 1216h312q5 0 60 -60q0 -5 -60 -60h-192q-5 0 -120 120zM224 320v280h24q5 0 36 -36v-244h-60zM224 620v280 h28q5 0 32 -32v-216q0 -5 -32 -32h-28zM224 908v32h28v-24q0 -8 -8 -8h-20zM264 612l32 28h216q5 0 32 -32l-32 -28h-216q-5 0 -32 32zM264 912v28h244q5 0 32 -32q0 -5 -32 -32h-208q-5 0 -36 36zM416 60q0 5 60 60h192q5 0 120 -120h-312q-5 0 -60 60zM416 1156q0 5 60 60 h312q0 -5 -120 -120h-192q-5 0 -60 60zM524 320v244q0 5 32 32q6 0 28 -28v-248h-60zM524 652v212q0 5 32 32l28 -32v-216q0 -6 -28 -28q-5 0 -32 32zM688 144v380q0 5 60 60q5 0 60 -60v-500q-5 0 -120 120zM688 692v384l120 116v-500q0 -5 -60 -60q-5 0 -60 60z" />
<glyph unicode="&#xaf;" horiz-adv-x="670" />
<glyph unicode="&#xb0;" horiz-adv-x="575" d="M119 1205v55q0 6 64 64q5 0 64 -64v-55q0 -6 -64 -65q-5 0 -64 65zM205 1110q0 6 64 65h55q6 0 65 -65q0 -5 -65 -64h-55q-6 0 -64 64zM209 1346v4q53 64 77 64h26q23 0 77 -64v-4q-54 -64 -77 -64h-26q-24 0 -77 64zM346 1213v26q0 24 64 77h4q64 -53 64 -77v-26 q0 -23 -64 -77h-4q-64 54 -64 77z" />
<glyph unicode="&#xb1;" horiz-adv-x="1014" />
<glyph unicode="&#xb2;" horiz-adv-x="1014" />
<glyph unicode="&#xb3;" horiz-adv-x="1014" />
<glyph unicode="&#xb4;" horiz-adv-x="599" d="M182 1215v72q1 6 132 132h72q5 0 44 -44q-3 -8 -168 -168h-72q-8 0 -8 8z" />
<glyph unicode="&#xb5;" horiz-adv-x="794" d="M-5 40q1 7 60 56q59 -49 60 -56v-384q-1 -7 -60 -56q-59 49 -60 56v384zM0 207v384q1 7 60 56q59 -49 60 -56v-384q-1 -7 -60 -56q-59 49 -60 56zM84 123q49 59 56 60h384q7 -1 56 -60q-49 -59 -56 -60h-384q-7 1 -56 60zM544 203v384q1 7 60 56q59 -49 60 -56v-384 q-1 -7 -60 -56q-59 49 -60 56z" />
<glyph unicode="&#xb6;" horiz-adv-x="940" d="M0 672v500q5 0 120 -120v-380q0 -5 -60 -60q-5 0 -60 60zM20 1196h504q7 -1 56 -60q-49 -59 -56 -60h-384q-5 0 -120 120zM84 588q49 59 56 60h384q7 -1 56 -60q-49 -59 -56 -60h-384q-7 1 -56 60zM544 120v384q1 7 60 56q59 -49 60 -56v-504q-5 0 -120 120zM544 672v384 q1 7 60 56q59 -49 60 -56v-384q-1 -7 -60 -56q-59 49 -60 56zM600 1136v4q53 64 77 64h26q23 0 77 -64v-4q-54 -64 -77 -64h-26q-24 0 -77 64zM714 120v384q1 7 60 56q59 -49 60 -56v-504q-5 0 -120 120zM714 672v384q1 7 60 56q59 -49 60 -56v-384q-1 -7 -60 -56 q-59 49 -60 56z" />
<glyph unicode="&#xb7;" horiz-adv-x="508" d="M129 709q0 15 16 31l82 84q15 14 29 14q13 0 31 -16l80 -86q12 -16 12 -29q0 -15 -14 -31l-80 -88q-20 -20 -29 -20q-16 0 -29 14l-88 101q-10 13 -10 26z" />
<glyph unicode="&#xb8;" horiz-adv-x="1024" />
<glyph unicode="&#xb9;" horiz-adv-x="1014" />
<glyph unicode="&#xba;" horiz-adv-x="718" />
<glyph unicode="&#xbb;" horiz-adv-x="944" d="M17 868q39 44 44 44h72q131 -126 132 -132v-72q0 -8 -8 -8h-72q-165 160 -168 168zM57 332v84q118 123 124 124h84v-80q-160 -165 -168 -168q-40 35 -40 40zM277 868q39 44 44 44h72q131 -126 132 -132v-72q0 -8 -8 -8h-72q-165 160 -168 168zM317 332v84 q118 123 124 124h84v-80q-160 -165 -168 -168q-40 35 -40 40zM565 627q55 60 60 60h172q64 -59 64 -64v-48q0 -8 -8 -8h-228q-60 55 -60 60z" />
<glyph unicode="&#xbc;" horiz-adv-x="1708" />
<glyph unicode="&#xbd;" horiz-adv-x="1964" />
<glyph unicode="&#xbe;" horiz-adv-x="1708" />
<glyph unicode="&#xbf;" horiz-adv-x="748" d="M1 127v384q1 7 60 56q59 -49 60 -56v-384q-1 -7 -60 -56q-59 49 -60 56zM85 47q49 59 56 60h384q7 -1 56 -60q-49 -59 -56 -60h-384q-7 1 -56 60zM85 595q27 35 52 60h392q25 -25 52 -60q-27 -35 -52 -60h-392q-25 25 -52 60zM521 1215v4q50 60 72 60h24q22 0 72 -60v-4 q-50 -60 -72 -60h-24q-22 0 -72 60zM545 675v384q1 7 60 56q59 -49 60 -56v-384q-1 -7 -60 -56q-59 49 -60 56z" />
<glyph unicode="&#xc0;" horiz-adv-x="789" d="M0 0v500q0 5 60 60q5 0 60 -60v-380q0 -5 -120 -120zM0 668v384q1 7 60 56q59 -49 60 -56v-384q-1 -7 -60 -56q-59 49 -60 56zM84 584q27 35 52 60h392q25 -25 52 -60q-27 -35 -52 -60h-392q-25 25 -52 60zM84 1132q49 59 56 60h384q7 -1 56 -60q-49 -59 -56 -60h-384 q-7 1 -56 60zM145 1404q0 5 44 44h76q6 -1 128 -128v-84h-80q-8 3 -168 168zM544 120v380q0 5 60 60q5 0 60 -60v-500q-5 0 -120 120zM544 668v384q1 7 60 56q59 -49 60 -56v-384q-1 -7 -60 -56q-59 49 -60 56z" />
<glyph unicode="&#xc1;" horiz-adv-x="804" d="M0 0v500q0 5 60 60q5 0 60 -60v-380q0 -5 -120 -120zM0 668v384q1 7 60 56q59 -49 60 -56v-384q-1 -7 -60 -56q-59 49 -60 56zM84 584q27 35 52 60h392q25 -25 52 -60q-27 -35 -52 -60h-392q-25 25 -52 60zM84 1132q49 59 56 60h384q7 -1 56 -60q-49 -59 -56 -60h-384 q-7 1 -56 60zM304 1268v72q1 6 132 132h72q5 0 44 -44q-3 -8 -168 -168h-72q-8 0 -8 8zM544 120v380q0 5 60 60q5 0 60 -60v-500q-5 0 -120 120zM544 668v384q1 7 60 56q59 -49 60 -56v-384q-1 -7 -60 -56q-59 49 -60 56z" />
<glyph unicode="&#xc2;" horiz-adv-x="794" d="M0 0v500q0 5 60 60q5 0 60 -60v-380q0 -5 -120 -120zM0 668v384q1 7 60 56q59 -49 60 -56v-384q-1 -7 -60 -56q-59 49 -60 56zM68 1277v76q1 6 128 128h80v-80q-3 -8 -168 -168zM84 584q27 35 52 60h392q25 -25 52 -60q-27 -35 -52 -60h-392q-25 25 -52 60zM84 1132 q49 59 56 60h384q7 -1 56 -60q-49 -59 -56 -60h-384q-7 1 -56 60zM264 1533v172q0 5 60 60h56v-232q0 -5 -60 -60zM357 1400v80h84q6 -1 124 -124v-84q0 -5 -40 -40q-8 3 -168 168zM544 120v380q0 5 60 60q5 0 60 -60v-500q-5 0 -120 120zM544 668v384q1 7 60 56 q59 -49 60 -56v-384q-1 -7 -60 -56q-59 49 -60 56z" />
<glyph unicode="&#xc3;" horiz-adv-x="793" d="M0 0v500q0 5 60 60q5 0 60 -60v-380q0 -5 -120 -120zM0 668v384q1 7 60 56q59 -49 60 -56v-384q-1 -7 -60 -56q-59 49 -60 56zM0 1264v76q1 6 128 128h80v-80q-3 -8 -168 -168zM84 584q27 35 52 60h392q25 -25 52 -60q-27 -35 -52 -60h-392q-25 25 -52 60zM84 1132 q49 59 56 60h384q7 -1 56 -60q-49 -59 -56 -60h-384q-7 1 -56 60zM240 1383v80h84q6 -1 124 -124v-84q0 -5 -40 -40q-8 3 -168 168zM479 1251v72q1 6 132 132h72q5 0 44 -44q-3 -8 -168 -168h-72q-8 0 -8 8zM544 120v380q0 5 60 60q5 0 60 -60v-500q-5 0 -120 120zM544 668 v384q1 7 60 56q59 -49 60 -56v-384q-1 -7 -60 -56q-59 49 -60 56z" />
<glyph unicode="&#xc4;" d="M0 0v500q0 5 60 60q5 0 60 -60v-380q0 -5 -120 -120zM0 668v384q1 7 60 56q59 -49 60 -56v-384q-1 -7 -60 -56q-59 49 -60 56zM53 1355q0 13 14 26l71 72q13 12 25 12q11 0 27 -14l69 -73q10 -14 10 -25q0 -13 -12 -27l-69 -75q-17 -17 -25 -17q-14 0 -25 12l-76 86 q-9 12 -9 23zM84 584q27 35 52 60h392q25 -25 52 -60q-27 -35 -52 -60h-392q-25 25 -52 60zM84 1132q49 59 56 60h384q7 -1 56 -60q-49 -59 -56 -60h-384q-7 1 -56 60zM418 1355q0 13 14 26l71 72q13 12 25 12q11 0 27 -13l69 -74q10 -14 10 -25q0 -13 -12 -26l-69 -76 q-17 -17 -25 -17q-14 0 -25 12l-76 87q-9 11 -9 22zM544 120v380q0 5 60 60q5 0 60 -60v-500q-5 0 -120 120zM544 668v384q1 7 60 56q59 -49 60 -56v-384q-1 -7 -60 -56q-59 49 -60 56z" />
<glyph unicode="&#xc5;" d="M0 0v500q0 5 60 60q5 0 60 -60v-380q0 -5 -120 -120zM0 668v384q1 7 60 56q59 -49 60 -56v-384q-1 -7 -60 -56q-59 49 -60 56zM84 584q27 35 52 60h392q25 -25 52 -60q-27 -35 -52 -60h-392q-25 25 -52 60zM84 1132q49 59 56 60h384q7 -1 56 -60q-49 -59 -56 -60h-384 q-7 1 -56 60zM157 1404v55q0 6 64 64q6 0 65 -64v-55q0 -6 -65 -65q-5 0 -64 65zM243 1309q0 6 64 65h56q5 0 64 -65q0 -5 -64 -64h-56q-5 0 -64 64zM247 1545v4q53 64 77 64h26q23 0 77 -64v-4q-54 -64 -77 -64h-26q-24 0 -77 64zM384 1412v26q0 24 64 77h4q65 -53 65 -77 v-26q0 -23 -65 -77h-4q-64 54 -64 77zM544 120v380q0 5 60 60q5 0 60 -60v-500q-5 0 -120 120zM544 668v384q1 7 60 56q59 -49 60 -56v-384q-1 -7 -60 -56q-59 49 -60 56z" />
<glyph unicode="&#xc6;" horiz-adv-x="2118" d="M23 10v500q0 5 60 60q5 0 60 -60v-380q0 -5 -120 -120zM23 678v384q1 7 60 56q59 -49 60 -56v-384q-1 -7 -60 -56q-59 49 -60 56zM107 594q27 35 52 60h392q25 -25 52 -60q-27 -35 -52 -60h-392q-25 25 -52 60zM107 1142q49 59 56 60h384q7 -1 56 -60q-49 -59 -56 -60 h-384q-7 1 -56 60zM563 678v384q1 7 60 56q59 -49 60 -56v-384q-1 -7 -60 -56q-59 49 -60 56zM565 24v504q1 7 60 56q59 -49 60 -56v-384q0 -5 -120 -120zM585 0q0 5 120 120h384q7 -1 56 -60q-49 -59 -56 -60h-504zM585 1216h504q7 -1 56 -60q-49 -59 -56 -60h-384 q-5 0 -120 120zM649 608q49 59 56 60h384q7 -1 56 -60q-49 -59 -56 -60h-384q-7 1 -56 60z" />
<glyph unicode="&#xc7;" horiz-adv-x="1399" />
<glyph unicode="&#xc8;" horiz-adv-x="697" d="M0 24v504q1 7 60 56q59 -49 60 -56v-384q0 -5 -120 -120zM0 692v500l120 -116v-384q0 -5 -60 -60q-5 0 -60 60zM20 0q0 5 120 120h384q7 -1 56 -60q-49 -59 -56 -60h-504zM20 1216h504q7 -1 56 -60q-49 -59 -56 -60h-384q-5 0 -120 120zM84 608q49 59 56 60h384 q7 -1 56 -60q-49 -59 -56 -60h-384q-7 1 -56 60zM111 1448q0 5 44 44h76q6 -1 128 -128v-84h-80q-8 3 -168 168z" />
<glyph unicode="&#xc9;" horiz-adv-x="1151" d="M0 24v504q1 7 60 56q59 -49 60 -56v-384q0 -5 -120 -120zM0 692v500l120 -116v-384q0 -5 -60 -60q-5 0 -60 60zM20 0q0 5 120 120h384q7 -1 56 -60q-49 -59 -56 -60h-504zM20 1216h504q7 -1 56 -60q-49 -59 -56 -60h-384q-5 0 -120 120zM84 608q49 59 56 60h384 q7 -1 56 -60q-49 -59 -56 -60h-384q-7 1 -56 60zM245 1272v72q1 6 132 132h72q5 0 44 -44q-3 -8 -168 -168h-72q-8 0 -8 8z" />
<glyph unicode="&#xca;" horiz-adv-x="697" d="M0 24v504q1 7 60 56q59 -49 60 -56v-384q0 -5 -120 -120zM0 692v500l120 -116v-384q0 -5 -60 -60q-5 0 -60 60zM20 0q0 5 120 120h384q7 -1 56 -60q-49 -59 -56 -60h-504zM20 1216h504q7 -1 56 -60q-49 -59 -56 -60h-384q-5 0 -120 120zM68 1277v76q1 6 128 128h80v-80 q-3 -8 -168 -168zM84 608q49 59 56 60h384q7 -1 56 -60q-49 -59 -56 -60h-384q-7 1 -56 60zM264 1533v172q0 5 60 60h56v-232q0 -5 -60 -60zM357 1400v80h84q6 -1 124 -124v-84q0 -5 -40 -40q-8 3 -168 168z" />
<glyph unicode="&#xcb;" horiz-adv-x="707" d="M0 24v504q1 7 60 56q59 -49 60 -56v-384q0 -5 -120 -120zM0 692v500l120 -116v-384q0 -5 -60 -60q-5 0 -60 60zM20 0q0 5 120 120h384q7 -1 56 -60q-49 -59 -56 -60h-504zM20 1216h504q7 -1 56 -60q-49 -59 -56 -60h-384q-5 0 -120 120zM53 1355q0 13 14 26l71 72 q13 12 25 12q11 0 27 -14l69 -73q10 -14 10 -25q0 -13 -12 -27l-69 -75q-17 -17 -25 -17q-14 0 -25 12l-76 86q-9 12 -9 23zM84 608q49 59 56 60h384q7 -1 56 -60q-49 -59 -56 -60h-384q-7 1 -56 60zM418 1355q0 13 14 26l71 72q13 12 25 12q11 0 27 -13l69 -74 q10 -14 10 -25q0 -13 -12 -26l-69 -76q-17 -17 -25 -17q-14 0 -25 12l-76 87q-9 11 -9 22z" />
<glyph unicode="&#xcc;" horiz-adv-x="370" d="M-1 1404q0 5 44 44h76q6 -1 128 -128v-84h-80q-8 3 -168 168zM122 20v500q0 5 60 60q5 0 60 -60v-380q0 -5 -120 -120zM122 692v524q5 0 120 -120v-404q-1 -7 -60 -56q-59 49 -60 56z" />
<glyph unicode="&#xcd;" horiz-adv-x="258" d="M0 0v500q0 5 60 60q5 0 60 -60v-380q0 -5 -120 -120zM0 672v524q5 0 120 -120v-404q-1 -7 -60 -56q-59 49 -60 56zM65 1214v72q1 6 132 132h72q5 0 44 -44q-3 -8 -168 -168h-72q-8 0 -8 8z" />
<glyph unicode="&#xce;" horiz-adv-x="346" d="M-83 1277v76q1 6 128 128h80v-80q-3 -8 -168 -168zM102 0v500q0 5 60 60q5 0 60 -60v-380q0 -5 -120 -120zM102 672v524q5 0 120 -120v-404q-1 -7 -60 -56q-59 49 -60 56zM113 1533v172q0 5 60 60h56v-232q0 -5 -60 -60zM206 1400v80h84q6 -1 124 -124v-84q0 -5 -40 -40 q-8 3 -168 168z" />
<glyph unicode="&#xcf;" horiz-adv-x="356" d="M-132 1350q0 13 14 26l71 72q13 12 25 12q11 0 27 -14l69 -73q10 -14 10 -25q0 -13 -12 -27l-69 -75q-17 -17 -25 -17q-14 0 -25 12l-76 86q-9 12 -9 23zM112 -5v500q0 5 60 60q5 0 60 -60v-380q0 -5 -120 -120zM112 667v524q5 0 120 -120v-404q-1 -7 -60 -56 q-59 49 -60 56zM233 1350q0 13 14 26l71 72q13 12 25 12q11 0 27 -13l69 -74q10 -14 10 -25q0 -13 -12 -26l-69 -76q-17 -17 -25 -17q-14 0 -25 12l-76 87q-9 11 -9 22z" />
<glyph unicode="&#xd0;" horiz-adv-x="1072" d="M11 550v48q0 5 64 64h172q5 0 60 -60q0 -5 -60 -60h-228q-8 0 -8 8zM283 24v504q1 7 60 56q59 -49 60 -56v-384q0 -5 -120 -120zM283 692v500l120 -116v-384q0 -5 -60 -60q-5 0 -60 60zM303 0q0 5 120 120h384q7 -1 56 -60q-49 -59 -56 -60h-504zM303 1225h504 q7 -1 56 -60q-49 -59 -56 -60h-384q-5 0 -120 120zM395 602q0 5 60 60h172q5 0 60 -60v-60h-232q-5 0 -60 60zM827 140v384q1 7 60 56q59 -49 60 -56v-384q-1 -7 -60 -56q-59 49 -60 56zM827 692v384q1 7 60 56q59 -49 60 -56v-384q-1 -7 -60 -56q-59 49 -60 56z" />
<glyph unicode="&#xd1;" horiz-adv-x="785" d="M0 0v504q1 7 60 56q59 -49 60 -56v-384q0 -5 -120 -120zM0 664v504l120 -116v-388q-1 -7 -60 -56q-59 49 -60 56zM15 1213v76q1 6 128 128h80v-80q-3 -8 -168 -168zM156 868v168h4q0 -5 184 -184q168 -169 168 -176v-72q0 -8 -8 -8h-64q-23 0 -104 92q-5 0 -180 180z M255 1332v80h84q6 -1 124 -124v-84q0 -5 -40 -40q-8 3 -168 168zM494 1200v72q1 6 132 132h72q5 0 44 -44q-3 -8 -168 -168h-72q-8 0 -8 8zM544 116v384q0 5 60 60q5 0 60 -60v-500zM544 668v384l120 116v-500q0 -5 -60 -60q-5 0 -60 60z" />
<glyph unicode="&#xd2;" horiz-adv-x="794" d="M0 24v504q1 7 60 56q59 -49 60 -56v-384q0 -5 -120 -120zM0 688v504l120 -116v-388q-1 -7 -60 -56q-59 49 -60 56zM20 0q0 5 120 120h384q5 0 120 -120h-624zM20 1216h620l-116 -120h-384q-5 0 -120 120zM145 1404q0 5 44 44h76q6 -1 128 -128v-84h-80q-8 3 -168 168z M544 140v384q0 5 60 60q5 0 60 -60v-500zM544 692v384l120 116v-500q0 -5 -60 -60q-5 0 -60 60z" />
<glyph unicode="&#xd3;" horiz-adv-x="794" d="M0 24v504q1 7 60 56q59 -49 60 -56v-384q0 -5 -120 -120zM0 688v504l120 -116v-388q-1 -7 -60 -56q-59 49 -60 56zM20 0q0 5 120 120h384q5 0 120 -120h-624zM20 1216h620l-116 -120h-384q-5 0 -120 120zM304 1268v72q1 6 132 132h72q5 0 44 -44q-3 -8 -168 -168h-72 q-8 0 -8 8zM544 140v384q0 5 60 60q5 0 60 -60v-500zM544 692v384l120 116v-500q0 -5 -60 -60q-5 0 -60 60z" />
<glyph unicode="&#xd4;" d="M0 24v504q1 7 60 56q59 -49 60 -56v-384q0 -5 -120 -120zM0 688v504l120 -116v-388q-1 -7 -60 -56q-59 49 -60 56zM20 0q0 5 120 120h384q5 0 120 -120h-624zM20 1216h620l-116 -120h-384q-5 0 -120 120zM83 1297v76q1 6 128 128h80v-80q-3 -8 -168 -168zM279 1553v172 q0 5 60 60h56v-232q0 -5 -60 -60zM372 1420v80h84q6 -1 124 -124v-84q0 -5 -40 -40q-8 3 -168 168zM544 140v384q0 5 60 60q5 0 60 -60v-500zM544 692v384l120 116v-500q0 -5 -60 -60q-5 0 -60 60z" />
<glyph unicode="&#xd5;" horiz-adv-x="794" d="M0 24v504q1 7 60 56q59 -49 60 -56v-384q0 -5 -120 -120zM0 688v504l120 -116v-388q-1 -7 -60 -56q-59 49 -60 56zM0 1264v76q1 6 128 128h80v-80q-3 -8 -168 -168zM20 0q0 5 120 120h384q5 0 120 -120h-624zM20 1216h620l-116 -120h-384q-5 0 -120 120zM240 1383v80h84 q6 -1 124 -124v-84q0 -5 -40 -40q-8 3 -168 168zM479 1251v72q1 6 132 132h72q5 0 44 -44q-3 -8 -168 -168h-72q-8 0 -8 8zM544 140v384q0 5 60 60q5 0 60 -60v-500zM544 692v384l120 116v-500q0 -5 -60 -60q-5 0 -60 60z" />
<glyph unicode="&#xd6;" d="M0 24v504q1 7 60 56q59 -49 60 -56v-384q0 -5 -120 -120zM0 688v504l120 -116v-388q-1 -7 -60 -56q-59 49 -60 56zM20 0q0 5 120 120h384q5 0 120 -120h-624zM20 1216h620l-116 -120h-384q-5 0 -120 120zM53 1355q0 13 14 26l71 72q13 12 25 12q11 0 27 -14l69 -73 q10 -14 10 -25q0 -13 -12 -27l-69 -75q-17 -17 -25 -17q-14 0 -25 12l-76 86q-9 12 -9 23zM418 1355q0 13 14 26l71 72q13 12 25 12q11 0 27 -13l69 -74q10 -14 10 -25q0 -13 -12 -26l-69 -76q-17 -17 -25 -17q-14 0 -25 12l-76 87q-9 11 -9 22zM544 140v384q0 5 60 60 q5 0 60 -60v-500zM544 692v384l120 116v-500q0 -5 -60 -60q-5 0 -60 60z" />
<glyph unicode="&#xd7;" d="M205 751v40l92 96l-92 96v40q0 40 12 40q16 4 32 4h40q2 0 96 -92q2 0 96 92h40q40 0 40 -12q4 -15 4 -32v-40q0 -2 -92 -96q0 -2 92 -96v-40q0 -40 -12 -40q-15 -4 -32 -4h-40l-96 92l-96 -92h-40q-40 0 -40 12q-4 16 -4 32z" />
<glyph unicode="&#xd8;" horiz-adv-x="789" d="M-220 -144q1 6 128 128h80v-80q-3 -8 -168 -168l-40 44v76zM0 24v504q1 7 60 56q59 -49 60 -56v-384q0 -5 -120 -120zM0 688v504l120 -116v-388q-1 -7 -60 -56q-59 49 -60 56zM20 0q0 5 120 120h384q5 0 120 -120h-624zM20 1216h620l-116 -120h-384q-5 0 -120 120z M544 140v384q0 5 60 60q5 0 60 -60v-500zM544 692v384l120 116v-500q0 -5 -60 -60q-5 0 -60 60zM679 1225v72q1 6 132 132h72q5 0 44 -44q-3 -8 -168 -168h-72q-8 0 -8 8z" />
<glyph unicode="&#xd9;" horiz-adv-x="1501" d="M0 24v504q1 7 60 56q59 -49 60 -56v-384q0 -5 -120 -120zM0 688v504l120 -116v-388q-1 -7 -60 -56q-59 49 -60 56zM20 0q0 5 120 120h384q5 0 120 -120h-624zM145 1404q0 5 44 44h76q6 -1 128 -128v-84h-80q-8 3 -168 168zM544 140v384q0 5 60 60q5 0 60 -60v-500z M544 692v384l120 116v-500q0 -5 -60 -60q-5 0 -60 60z" />
<glyph unicode="&#xda;" horiz-adv-x="1501" d="M0 24v504q1 7 60 56q59 -49 60 -56v-384q0 -5 -120 -120zM0 688v504l120 -116v-388q-1 -7 -60 -56q-59 49 -60 56zM20 0q0 5 120 120h384q5 0 120 -120h-624zM304 1268v72q1 6 132 132h72q5 0 44 -44q-3 -8 -168 -168h-72q-8 0 -8 8zM544 140v384q0 5 60 60q5 0 60 -60 v-500zM544 692v384l120 116v-500q0 -5 -60 -60q-5 0 -60 60z" />
<glyph unicode="&#xdb;" horiz-adv-x="794" d="M0 24v504q1 7 60 56q59 -49 60 -56v-384q0 -5 -120 -120zM0 688v504l120 -116v-388q-1 -7 -60 -56q-59 49 -60 56zM20 0q0 5 120 120h384q5 0 120 -120h-624zM68 1277v76q1 6 128 128h80v-80q-3 -8 -168 -168zM264 1533v172q0 5 60 60h56v-232q0 -5 -60 -60zM357 1400v80 h84q6 -1 124 -124v-84q0 -5 -40 -40q-8 3 -168 168zM544 140v384q0 5 60 60q5 0 60 -60v-500zM544 692v384l120 116v-500q0 -5 -60 -60q-5 0 -60 60z" />
<glyph unicode="&#xdc;" d="M0 24v504q1 7 60 56q59 -49 60 -56v-384q0 -5 -120 -120zM0 688v504l120 -116v-388q-1 -7 -60 -56q-59 49 -60 56zM20 0q0 5 120 120h384q5 0 120 -120h-624zM53 1355q0 13 14 26l71 72q13 12 25 12q11 0 27 -14l69 -73q10 -14 10 -25q0 -13 -12 -27l-69 -75 q-17 -17 -25 -17q-14 0 -25 12l-76 86q-9 12 -9 23zM418 1355q0 13 14 26l71 72q13 12 25 12q11 0 27 -13l69 -74q10 -14 10 -25q0 -13 -12 -26l-69 -76q-17 -17 -25 -17q-14 0 -25 12l-76 87q-9 11 -9 22zM544 140v384q0 5 60 60q5 0 60 -60v-500zM544 692v384l120 116 v-500q0 -5 -60 -60q-5 0 -60 60z" />
<glyph unicode="&#xdd;" horiz-adv-x="707" d="M0 1017q0 7 25 75q87 -16 92 -29l192 -342v-4q0 -7 -25 -75q-96 14 -96 38q-177 303 -188 337zM271 129v440q1 8 60 64q59 -56 60 -64v-576q-5 0 -120 136zM304 1268v72q1 6 132 132h72q5 0 44 -44q-3 -8 -168 -168h-72q-8 0 -8 8zM354 726q183 320 205 350q72 12 79 16 q25 -65 25 -83q-185 -326 -204 -350l-80 -17q-25 66 -25 84z" />
<glyph unicode="&#xde;" d="M-1 1014v220q0 22 60 72q5 0 60 -60v-172q0 -5 -60 -60h-60zM5 -219v504q1 7 60 56q59 -49 60 -56v-384q0 -5 -120 -120zM5 445v504l120 -116v-388q-1 -7 -60 -56q-59 49 -60 56zM25 973h620l-116 -120h-384q-5 0 -120 120zM89 365q49 59 56 60h384q7 -1 56 -60 q-49 -59 -56 -60h-384q-7 1 -56 60zM549 449v384l120 116v-500q0 -5 -60 -60q-5 0 -60 60z" />
<glyph unicode="&#xdf;" horiz-adv-x="1251" />
<glyph unicode="&#xe0;" horiz-adv-x="804" d="M0 0v500q0 5 60 60q5 0 60 -60v-380q0 -5 -120 -120zM0 668v384q1 7 60 56q59 -49 60 -56v-384q-1 -7 -60 -56q-59 49 -60 56zM84 584q27 35 52 60h392q25 -25 52 -60q-27 -35 -52 -60h-392q-25 25 -52 60zM84 1132q49 59 56 60h384q7 -1 56 -60q-49 -59 -56 -60h-384 q-7 1 -56 60zM145 1404q0 5 44 44h76q6 -1 128 -128v-84h-80q-8 3 -168 168zM544 120v380q0 5 60 60q5 0 60 -60v-500q-5 0 -120 120zM544 668v384q1 7 60 56q59 -49 60 -56v-384q-1 -7 -60 -56q-59 49 -60 56z" />
<glyph unicode="&#xe1;" horiz-adv-x="922" d="M0 0v500q0 5 60 60q5 0 60 -60v-380q0 -5 -120 -120zM0 668v384q1 7 60 56q59 -49 60 -56v-384q-1 -7 -60 -56q-59 49 -60 56zM84 584q27 35 52 60h392q25 -25 52 -60q-27 -35 -52 -60h-392q-25 25 -52 60zM84 1132q49 59 56 60h384q7 -1 56 -60q-49 -59 -56 -60h-384 q-7 1 -56 60zM304 1268v72q1 6 132 132h72q5 0 44 -44q-3 -8 -168 -168h-72q-8 0 -8 8zM544 120v380q0 5 60 60q5 0 60 -60v-500q-5 0 -120 120zM544 668v384q1 7 60 56q59 -49 60 -56v-384q-1 -7 -60 -56q-59 49 -60 56z" />
<glyph unicode="&#xe2;" horiz-adv-x="788" d="M0 0v500q0 5 60 60q5 0 60 -60v-380q0 -5 -120 -120zM0 668v384q1 7 60 56q59 -49 60 -56v-384q-1 -7 -60 -56q-59 49 -60 56zM68 1277v76q1 6 128 128h80v-80q-3 -8 -168 -168zM84 584q27 35 52 60h392q25 -25 52 -60q-27 -35 -52 -60h-392q-25 25 -52 60zM84 1132 q49 59 56 60h384q7 -1 56 -60q-49 -59 -56 -60h-384q-7 1 -56 60zM264 1533v172q0 5 60 60h56v-232q0 -5 -60 -60zM357 1400v80h84q6 -1 124 -124v-84q0 -5 -40 -40q-8 3 -168 168zM544 120v380q0 5 60 60q5 0 60 -60v-500q-5 0 -120 120zM544 668v384q1 7 60 56 q59 -49 60 -56v-384q-1 -7 -60 -56q-59 49 -60 56z" />
<glyph unicode="&#xe3;" horiz-adv-x="833" d="M0 0v500q0 5 60 60q5 0 60 -60v-380q0 -5 -120 -120zM0 668v384q1 7 60 56q59 -49 60 -56v-384q-1 -7 -60 -56q-59 49 -60 56zM0 1264v76q1 6 128 128h80v-80q-3 -8 -168 -168zM84 584q27 35 52 60h392q25 -25 52 -60q-27 -35 -52 -60h-392q-25 25 -52 60zM84 1132 q49 59 56 60h384q7 -1 56 -60q-49 -59 -56 -60h-384q-7 1 -56 60zM240 1383v80h84q6 -1 124 -124v-84q0 -5 -40 -40q-8 3 -168 168zM479 1251v72q1 6 132 132h72q5 0 44 -44q-3 -8 -168 -168h-72q-8 0 -8 8zM544 120v380q0 5 60 60q5 0 60 -60v-500q-5 0 -120 120zM544 668 v384q1 7 60 56q59 -49 60 -56v-384q-1 -7 -60 -56q-59 49 -60 56z" />
<glyph unicode="&#xe4;" horiz-adv-x="804" d="M0 0v500q0 5 60 60q5 0 60 -60v-380q0 -5 -120 -120zM0 668v384q1 7 60 56q59 -49 60 -56v-384q-1 -7 -60 -56q-59 49 -60 56zM53 1355q0 13 14 26l71 72q13 12 25 12q11 0 27 -14l69 -73q10 -14 10 -25q0 -13 -12 -27l-69 -75q-17 -17 -25 -17q-14 0 -25 12l-76 86 q-9 12 -9 23zM84 584q27 35 52 60h392q25 -25 52 -60q-27 -35 -52 -60h-392q-25 25 -52 60zM84 1132q49 59 56 60h384q7 -1 56 -60q-49 -59 -56 -60h-384q-7 1 -56 60zM418 1355q0 13 14 26l71 72q13 12 25 12q11 0 27 -13l69 -74q10 -14 10 -25q0 -13 -12 -26l-69 -76 q-17 -17 -25 -17q-14 0 -25 12l-76 87q-9 11 -9 22zM544 120v380q0 5 60 60q5 0 60 -60v-500q-5 0 -120 120zM544 668v384q1 7 60 56q59 -49 60 -56v-384q-1 -7 -60 -56q-59 49 -60 56z" />
<glyph unicode="&#xe5;" horiz-adv-x="794" d="M0 0v500q0 5 60 60q5 0 60 -60v-380q0 -5 -120 -120zM0 668v384q1 7 60 56q59 -49 60 -56v-384q-1 -7 -60 -56q-59 49 -60 56zM84 584q27 35 52 60h392q25 -25 52 -60q-27 -35 -52 -60h-392q-25 25 -52 60zM84 1132q49 59 56 60h384q7 -1 56 -60q-49 -59 -56 -60h-384 q-7 1 -56 60zM157 1404v55q0 6 64 64q6 0 65 -64v-55q0 -6 -65 -65q-5 0 -64 65zM243 1309q0 6 64 65h56q5 0 64 -65q0 -5 -64 -64h-56q-5 0 -64 64zM247 1545v4q53 64 77 64h26q23 0 77 -64v-4q-54 -64 -77 -64h-26q-24 0 -77 64zM384 1412v26q0 24 64 77h4q65 -53 65 -77 v-26q0 -23 -65 -77h-4q-64 54 -64 77zM544 120v380q0 5 60 60q5 0 60 -60v-500q-5 0 -120 120zM544 668v384q1 7 60 56q59 -49 60 -56v-384q-1 -7 -60 -56q-59 49 -60 56z" />
<glyph unicode="&#xe6;" horiz-adv-x="1257" d="M23 10v500q0 5 60 60q5 0 60 -60v-380q0 -5 -120 -120zM23 678v384q1 7 60 56q59 -49 60 -56v-384q-1 -7 -60 -56q-59 49 -60 56zM107 594q27 35 52 60h392q25 -25 52 -60q-27 -35 -52 -60h-392q-25 25 -52 60zM107 1142q49 59 56 60h384q7 -1 56 -60q-49 -59 -56 -60 h-384q-7 1 -56 60zM563 678v384q1 7 60 56q59 -49 60 -56v-384q-1 -7 -60 -56q-59 49 -60 56zM565 24v504q1 7 60 56q59 -49 60 -56v-384q0 -5 -120 -120zM585 0q0 5 120 120h384q7 -1 56 -60q-49 -59 -56 -60h-504zM585 1216h504q7 -1 56 -60q-49 -59 -56 -60h-384 q-5 0 -120 120zM649 608q49 59 56 60h384q7 -1 56 -60q-49 -59 -56 -60h-384q-7 1 -56 60z" />
<glyph unicode="&#xe7;" horiz-adv-x="905" />
<glyph unicode="&#xe8;" horiz-adv-x="707" d="M0 24v504q1 7 60 56q59 -49 60 -56v-384q0 -5 -120 -120zM0 692v500l120 -116v-384q0 -5 -60 -60q-5 0 -60 60zM20 0q0 5 120 120h384q7 -1 56 -60q-49 -59 -56 -60h-504zM20 1216h504q7 -1 56 -60q-49 -59 -56 -60h-384q-5 0 -120 120zM84 608q49 59 56 60h384 q7 -1 56 -60q-49 -59 -56 -60h-384q-7 1 -56 60zM111 1448q0 5 44 44h76q6 -1 128 -128v-84h-80q-8 3 -168 168z" />
<glyph unicode="&#xe9;" horiz-adv-x="707" d="M0 24v504q1 7 60 56q59 -49 60 -56v-384q0 -5 -120 -120zM0 692v500l120 -116v-384q0 -5 -60 -60q-5 0 -60 60zM20 0q0 5 120 120h384q7 -1 56 -60q-49 -59 -56 -60h-504zM20 1216h504q7 -1 56 -60q-49 -59 -56 -60h-384q-5 0 -120 120zM84 608q49 59 56 60h384 q7 -1 56 -60q-49 -59 -56 -60h-384q-7 1 -56 60zM245 1272v72q1 6 132 132h72q5 0 44 -44q-3 -8 -168 -168h-72q-8 0 -8 8z" />
<glyph unicode="&#xea;" horiz-adv-x="698" d="M0 24v504q1 7 60 56q59 -49 60 -56v-384q0 -5 -120 -120zM0 692v500l120 -116v-384q0 -5 -60 -60q-5 0 -60 60zM20 0q0 5 120 120h384q7 -1 56 -60q-49 -59 -56 -60h-504zM20 1216h504q7 -1 56 -60q-49 -59 -56 -60h-384q-5 0 -120 120zM68 1277v76q1 6 128 128h80v-80 q-3 -8 -168 -168zM84 608q49 59 56 60h384q7 -1 56 -60q-49 -59 -56 -60h-384q-7 1 -56 60zM264 1533v172q0 5 60 60h56v-232q0 -5 -60 -60zM357 1400v80h84q6 -1 124 -124v-84q0 -5 -40 -40q-8 3 -168 168z" />
<glyph unicode="&#xeb;" horiz-adv-x="702" d="M0 24v504q1 7 60 56q59 -49 60 -56v-384q0 -5 -120 -120zM0 692v500l120 -116v-384q0 -5 -60 -60q-5 0 -60 60zM20 0q0 5 120 120h384q7 -1 56 -60q-49 -59 -56 -60h-504zM20 1216h504q7 -1 56 -60q-49 -59 -56 -60h-384q-5 0 -120 120zM53 1355q0 13 14 26l71 72 q13 12 25 12q11 0 27 -14l69 -73q10 -14 10 -25q0 -13 -12 -27l-69 -75q-17 -17 -25 -17q-14 0 -25 12l-76 86q-9 12 -9 23zM84 608q49 59 56 60h384q7 -1 56 -60q-49 -59 -56 -60h-384q-7 1 -56 60zM418 1355q0 13 14 26l71 72q13 12 25 12q11 0 27 -13l69 -74 q10 -14 10 -25q0 -13 -12 -26l-69 -76q-17 -17 -25 -17q-14 0 -25 12l-76 87q-9 11 -9 22z" />
<glyph unicode="&#xec;" horiz-adv-x="368" d="M-1 1404q0 5 44 44h76q6 -1 128 -128v-84h-80q-8 3 -168 168zM122 20v500q0 5 60 60q5 0 60 -60v-380q0 -5 -120 -120zM122 692v524q5 0 120 -120v-404q-1 -7 -60 -56q-59 49 -60 56z" />
<glyph unicode="&#xed;" horiz-adv-x="200" d="M0 0v500q0 5 60 60q5 0 60 -60v-380q0 -5 -120 -120zM0 672v524q5 0 120 -120v-404q-1 -7 -60 -56q-59 49 -60 56zM65 1214v72q1 6 132 132h72q5 0 44 -44q-3 -8 -168 -168h-72q-8 0 -8 8z" />
<glyph unicode="&#xee;" horiz-adv-x="295" d="M-151 1277v76q1 6 128 128h80v-80q-3 -8 -168 -168zM34 0v500q0 5 60 60q5 0 60 -60v-380q0 -5 -120 -120zM34 672v524q5 0 120 -120v-404q-1 -7 -60 -56q-59 49 -60 56zM45 1533v172q0 5 60 60h56v-232q0 -5 -60 -60zM138 1400v80h84q6 -1 124 -124v-84q0 -5 -40 -40 q-8 3 -168 168z" />
<glyph unicode="&#xef;" horiz-adv-x="297" d="M-161 1350q0 13 14 26l71 72q13 12 25 12q11 0 27 -14l69 -73q10 -14 10 -25q0 -13 -12 -27l-69 -75q-17 -17 -25 -17q-14 0 -25 12l-76 86q-9 12 -9 23zM83 -5v500q0 5 60 60q5 0 60 -60v-380q0 -5 -120 -120zM83 667v524q5 0 120 -120v-404q-1 -7 -60 -56 q-59 49 -60 56zM204 1350q0 13 14 26l71 72q13 12 25 12q11 0 27 -13l69 -74q10 -14 10 -25q0 -13 -12 -26l-69 -76q-17 -17 -25 -17q-14 0 -25 12l-76 87q-9 11 -9 22z" />
<glyph unicode="&#xf0;" horiz-adv-x="1139" />
<glyph unicode="&#xf1;" horiz-adv-x="804" d="M0 0v504q1 7 60 56q59 -49 60 -56v-384q0 -5 -120 -120zM0 664v504l120 -116v-388q-1 -7 -60 -56q-59 49 -60 56zM15 1213v76q1 6 128 128h80v-80q-3 -8 -168 -168zM156 868v168h4q0 -5 184 -184q168 -169 168 -176v-72q0 -8 -8 -8h-64q-23 0 -104 92q-5 0 -180 180z M255 1332v80h84q6 -1 124 -124v-84q0 -5 -40 -40q-8 3 -168 168zM494 1200v72q1 6 132 132h72q5 0 44 -44q-3 -8 -168 -168h-72q-8 0 -8 8zM544 116v384q0 5 60 60q5 0 60 -60v-500zM544 668v384l120 116v-500q0 -5 -60 -60q-5 0 -60 60z" />
<glyph unicode="&#xf2;" horiz-adv-x="785" d="M0 24v504q1 7 60 56q59 -49 60 -56v-384q0 -5 -120 -120zM0 688v504l120 -116v-388q-1 -7 -60 -56q-59 49 -60 56zM20 0q0 5 120 120h384q5 0 120 -120h-624zM20 1216h620l-116 -120h-384q-5 0 -120 120zM145 1404q0 5 44 44h76q6 -1 128 -128v-84h-80q-8 3 -168 168z M544 140v384q0 5 60 60q5 0 60 -60v-500zM544 692v384l120 116v-500q0 -5 -60 -60q-5 0 -60 60z" />
<glyph unicode="&#xf3;" horiz-adv-x="760" d="M0 24v504q1 7 60 56q59 -49 60 -56v-384q0 -5 -120 -120zM0 688v504l120 -116v-388q-1 -7 -60 -56q-59 49 -60 56zM20 0q0 5 120 120h384q5 0 120 -120h-624zM20 1216h620l-116 -120h-384q-5 0 -120 120zM304 1268v72q1 6 132 132h72q5 0 44 -44q-3 -8 -168 -168h-72 q-8 0 -8 8zM544 140v384q0 5 60 60q5 0 60 -60v-500zM544 692v384l120 116v-500q0 -5 -60 -60q-5 0 -60 60z" />
<glyph unicode="&#xf4;" horiz-adv-x="780" d="M0 24v504q1 7 60 56q59 -49 60 -56v-384q0 -5 -120 -120zM0 688v504l120 -116v-388q-1 -7 -60 -56q-59 49 -60 56zM20 0q0 5 120 120h384q5 0 120 -120h-624zM20 1216h620l-116 -120h-384q-5 0 -120 120zM83 1297v76q1 6 128 128h80v-80q-3 -8 -168 -168zM279 1553v172 q0 5 60 60h56v-232q0 -5 -60 -60zM372 1420v80h84q6 -1 124 -124v-84q0 -5 -40 -40q-8 3 -168 168zM544 140v384q0 5 60 60q5 0 60 -60v-500zM544 692v384l120 116v-500q0 -5 -60 -60q-5 0 -60 60z" />
<glyph unicode="&#xf5;" horiz-adv-x="1010" d="M0 24v504q1 7 60 56q59 -49 60 -56v-384q0 -5 -120 -120zM0 688v504l120 -116v-388q-1 -7 -60 -56q-59 49 -60 56zM0 1264v76q1 6 128 128h80v-80q-3 -8 -168 -168zM20 0q0 5 120 120h384q5 0 120 -120h-624zM20 1216h620l-116 -120h-384q-5 0 -120 120zM240 1383v80h84 q6 -1 124 -124v-84q0 -5 -40 -40q-8 3 -168 168zM479 1251v72q1 6 132 132h72q5 0 44 -44q-3 -8 -168 -168h-72q-8 0 -8 8zM544 140v384q0 5 60 60q5 0 60 -60v-500zM544 692v384l120 116v-500q0 -5 -60 -60q-5 0 -60 60z" />
<glyph unicode="&#xf6;" horiz-adv-x="1010" d="M0 24v504q1 7 60 56q59 -49 60 -56v-384q0 -5 -120 -120zM0 688v504l120 -116v-388q-1 -7 -60 -56q-59 49 -60 56zM20 0q0 5 120 120h384q5 0 120 -120h-624zM20 1216h620l-116 -120h-384q-5 0 -120 120zM53 1355q0 13 14 26l71 72q13 12 25 12q11 0 27 -14l69 -73 q10 -14 10 -25q0 -13 -12 -27l-69 -75q-17 -17 -25 -17q-14 0 -25 12l-76 86q-9 12 -9 23zM418 1355q0 13 14 26l71 72q13 12 25 12q11 0 27 -13l69 -74q10 -14 10 -25q0 -13 -12 -26l-69 -76q-17 -17 -25 -17q-14 0 -25 12l-76 87q-9 11 -9 22zM544 140v384q0 5 60 60 q5 0 60 -60v-500zM544 692v384l120 116v-500q0 -5 -60 -60q-5 0 -60 60z" />
<glyph unicode="&#xf7;" d="M105 603q59 59 67 60h460q8 -1 67 -60q-59 -59 -67 -60h-460q-8 1 -67 60zM198 956v55q0 6 64 64q6 0 65 -64v-55q0 -6 -65 -65q-5 0 -64 65zM199 190v55q0 6 64 64q6 0 65 -64v-55q0 -6 -65 -65q-5 0 -64 65zM284 861q0 6 64 65h56q5 0 64 -65q0 -5 -64 -64h-56 q-5 0 -64 64zM285 95q0 6 64 65h56q5 0 64 -65q0 -5 -64 -64h-56q-5 0 -64 64zM288 1097v4q53 64 77 64h26q23 0 77 -64v-4q-54 -64 -77 -64h-26q-24 0 -77 64zM289 331v4q53 64 77 64h26q23 0 77 -64v-4q-54 -64 -77 -64h-26q-24 0 -77 64zM425 964v26q0 24 64 77h4 q65 -53 65 -77v-26q0 -23 -65 -77h-4q-64 54 -64 77zM426 198v26q0 24 64 77h4q65 -53 65 -77v-26q0 -23 -65 -77h-4q-64 54 -64 77z" />
<glyph unicode="&#xf8;" horiz-adv-x="794" d="M-220 -144q1 6 128 128h80v-80q-3 -8 -168 -168l-40 44v76zM0 24v504q1 7 60 56q59 -49 60 -56v-384q0 -5 -120 -120zM0 688v504l120 -116v-388q-1 -7 -60 -56q-59 49 -60 56zM20 0q0 5 120 120h384q5 0 120 -120h-624zM20 1216h620l-116 -120h-384q-5 0 -120 120z M544 140v384q0 5 60 60q5 0 60 -60v-500zM544 692v384l120 116v-500q0 -5 -60 -60q-5 0 -60 60zM679 1225v72q1 6 132 132h72q5 0 44 -44q-3 -8 -168 -168h-72q-8 0 -8 8z" />
<glyph unicode="&#xf9;" horiz-adv-x="804" d="M0 24v504q1 7 60 56q59 -49 60 -56v-384q0 -5 -120 -120zM0 688v504l120 -116v-388q-1 -7 -60 -56q-59 49 -60 56zM20 0q0 5 120 120h384q5 0 120 -120h-624zM145 1404q0 5 44 44h76q6 -1 128 -128v-84h-80q-8 3 -168 168zM544 140v384q0 5 60 60q5 0 60 -60v-500z M544 692v384l120 116v-500q0 -5 -60 -60q-5 0 -60 60z" />
<glyph unicode="&#xfa;" horiz-adv-x="794" d="M0 24v504q1 7 60 56q59 -49 60 -56v-384q0 -5 -120 -120zM0 688v504l120 -116v-388q-1 -7 -60 -56q-59 49 -60 56zM20 0q0 5 120 120h384q5 0 120 -120h-624zM304 1268v72q1 6 132 132h72q5 0 44 -44q-3 -8 -168 -168h-72q-8 0 -8 8zM544 140v384q0 5 60 60q5 0 60 -60 v-500zM544 692v384l120 116v-500q0 -5 -60 -60q-5 0 -60 60z" />
<glyph unicode="&#xfb;" d="M0 24v504q1 7 60 56q59 -49 60 -56v-384q0 -5 -120 -120zM0 688v504l120 -116v-388q-1 -7 -60 -56q-59 49 -60 56zM20 0q0 5 120 120h384q5 0 120 -120h-624zM68 1277v76q1 6 128 128h80v-80q-3 -8 -168 -168zM264 1533v172q0 5 60 60h56v-232q0 -5 -60 -60zM357 1400v80 h84q6 -1 124 -124v-84q0 -5 -40 -40q-8 3 -168 168zM544 140v384q0 5 60 60q5 0 60 -60v-500zM544 692v384l120 116v-500q0 -5 -60 -60q-5 0 -60 60z" />
<glyph unicode="&#xfc;" d="M0 24v504q1 7 60 56q59 -49 60 -56v-384q0 -5 -120 -120zM0 688v504l120 -116v-388q-1 -7 -60 -56q-59 49 -60 56zM20 0q0 5 120 120h384q5 0 120 -120h-624zM53 1355q0 13 14 26l71 72q13 12 25 12q11 0 27 -14l69 -73q10 -14 10 -25q0 -13 -12 -27l-69 -75 q-17 -17 -25 -17q-14 0 -25 12l-76 86q-9 12 -9 23zM418 1355q0 13 14 26l71 72q13 12 25 12q11 0 27 -13l69 -74q10 -14 10 -25q0 -13 -12 -26l-69 -76q-17 -17 -25 -17q-14 0 -25 12l-76 87q-9 11 -9 22zM544 140v384q0 5 60 60q5 0 60 -60v-500zM544 692v384l120 116 v-500q0 -5 -60 -60q-5 0 -60 60z" />
<glyph unicode="&#xfd;" horiz-adv-x="760" d="M0 1017q0 7 25 75q87 -16 92 -29l192 -342v-4q0 -7 -25 -75q-96 14 -96 38q-177 303 -188 337zM271 129v440q1 8 60 64q59 -56 60 -64v-576q-5 0 -120 136zM304 1268v72q1 6 132 132h72q5 0 44 -44q-3 -8 -168 -168h-72q-8 0 -8 8zM354 726q183 320 205 350q72 12 79 16 q25 -65 25 -83q-185 -326 -204 -350l-80 -17q-25 66 -25 84z" />
<glyph unicode="&#xfe;" d="M-1 1014v220q0 22 60 72q5 0 60 -60v-172q0 -5 -60 -60h-60zM5 -219v504q1 7 60 56q59 -49 60 -56v-384q0 -5 -120 -120zM5 445v504l120 -116v-388q-1 -7 -60 -56q-59 49 -60 56zM25 973h620l-116 -120h-384q-5 0 -120 120zM89 365q49 59 56 60h384q7 -1 56 -60 q-49 -59 -56 -60h-384q-7 1 -56 60zM549 449v384l120 116v-500q0 -5 -60 -60q-5 0 -60 60z" />
<glyph unicode="&#xff;" horiz-adv-x="692" d="M0 1017q0 7 25 75q87 -16 92 -29l192 -342v-4q0 -7 -25 -75q-96 14 -96 38q-177 303 -188 337zM53 1355q0 13 14 26l71 72q13 12 25 12q11 0 27 -14l69 -73q10 -14 10 -25q0 -13 -12 -27l-69 -75q-17 -17 -25 -17q-14 0 -25 12l-76 86q-9 12 -9 23zM271 129v440 q1 8 60 64q59 -56 60 -64v-576q-5 0 -120 136zM354 726q183 320 205 350q72 12 79 16q25 -65 25 -83q-185 -326 -204 -350l-80 -17q-25 66 -25 84zM418 1355q0 13 14 26l71 72q13 12 25 12q11 0 27 -13l69 -74q10 -14 10 -25q0 -13 -12 -26l-69 -76q-17 -17 -25 -17 q-14 0 -25 12l-76 87q-9 11 -9 22z" />
<glyph unicode="&#x152;" horiz-adv-x="1306" d="M-10 34v504q1 7 60 56q59 -49 60 -56v-384q0 -5 -120 -120zM-10 698v504l120 -116v-388q-1 -7 -60 -56q-59 49 -60 56zM10 10q0 5 120 120h384q5 0 120 -120h-624zM10 1226h620l-116 -120h-384q-5 0 -120 120zM534 150v384q0 5 60 60q5 0 60 -60v-500zM534 702v384 l120 116v-500q0 -5 -60 -60q-5 0 -60 60zM643 33v504q1 7 60 56q59 -49 60 -56v-384q0 -5 -120 -120zM643 701v500l120 -116v-384q0 -5 -60 -60q-5 0 -60 60zM663 9q0 5 120 120h384q7 -1 56 -60q-49 -59 -56 -60h-504zM663 1225h504q7 -1 56 -60q-49 -59 -56 -60h-384 q-5 0 -120 120zM727 617q49 59 56 60h384q7 -1 56 -60q-49 -59 -56 -60h-384q-7 1 -56 60z" />
<glyph unicode="&#x153;" horiz-adv-x="1301" d="M-10 34v504q1 7 60 56q59 -49 60 -56v-384q0 -5 -120 -120zM-10 698v504l120 -116v-388q-1 -7 -60 -56q-59 49 -60 56zM10 10q0 5 120 120h384q5 0 120 -120h-624zM10 1226h620l-116 -120h-384q-5 0 -120 120zM534 150v384q0 5 60 60q5 0 60 -60v-500zM534 702v384 l120 116v-500q0 -5 -60 -60q-5 0 -60 60zM643 33v504q1 7 60 56q59 -49 60 -56v-384q0 -5 -120 -120zM643 701v500l120 -116v-384q0 -5 -60 -60q-5 0 -60 60zM663 9q0 5 120 120h384q7 -1 56 -60q-49 -59 -56 -60h-504zM663 1225h504q7 -1 56 -60q-49 -59 -56 -60h-384 q-5 0 -120 120zM727 617q49 59 56 60h384q7 -1 56 -60q-49 -59 -56 -60h-384q-7 1 -56 60z" />
<glyph unicode="&#x2c6;" horiz-adv-x="1024" />
<glyph unicode="&#x2dc;" horiz-adv-x="1024" d="M122 1149v76q1 6 128 128h80v-80q-3 -8 -168 -168zM362 1268v80h84q6 -1 124 -124v-84q0 -5 -40 -40q-8 3 -168 168zM601 1136v72q1 6 132 132h72q5 0 44 -44q-3 -8 -168 -168h-72q-8 0 -8 8z" />
<glyph unicode="&#x2000;" horiz-adv-x="892" />
<glyph unicode="&#x2001;" horiz-adv-x="1785" />
<glyph unicode="&#x2002;" horiz-adv-x="892" />
<glyph unicode="&#x2003;" horiz-adv-x="1785" />
<glyph unicode="&#x2004;" horiz-adv-x="595" />
<glyph unicode="&#x2005;" horiz-adv-x="446" />
<glyph unicode="&#x2006;" horiz-adv-x="297" />
<glyph unicode="&#x2007;" horiz-adv-x="297" />
<glyph unicode="&#x2008;" horiz-adv-x="223" />
<glyph unicode="&#x2009;" horiz-adv-x="357" />
<glyph unicode="&#x200a;" horiz-adv-x="99" />
<glyph unicode="&#x2010;" horiz-adv-x="670" d="M90 608q49 59 56 60h384q7 -1 56 -60q-49 -59 -56 -60h-384q-7 1 -56 60z" />
<glyph unicode="&#x2011;" horiz-adv-x="670" d="M90 608q49 59 56 60h384q7 -1 56 -60q-49 -59 -56 -60h-384q-7 1 -56 60z" />
<glyph unicode="&#x2012;" horiz-adv-x="670" d="M90 608q49 59 56 60h384q7 -1 56 -60q-49 -59 -56 -60h-384q-7 1 -56 60z" />
<glyph unicode="&#x2013;" horiz-adv-x="599" d="M0 608q49 59 56 60h384q7 -1 56 -60q-49 -59 -56 -60h-384q-7 1 -56 60z" />
<glyph unicode="&#x2014;" horiz-adv-x="595" d="M0 608q49 59 56 60h384q7 -1 56 -60q-49 -59 -56 -60h-384q-7 1 -56 60z" />
<glyph unicode="&#x2018;" horiz-adv-x="557" />
<glyph unicode="&#x2019;" horiz-adv-x="557" />
<glyph unicode="&#x201a;" horiz-adv-x="557" />
<glyph unicode="&#x201c;" horiz-adv-x="910" />
<glyph unicode="&#x201d;" horiz-adv-x="910" />
<glyph unicode="&#x201e;" horiz-adv-x="910" />
<glyph unicode="&#x2022;" horiz-adv-x="595" d="M108 804v55q0 6 64 64q5 0 64 -64v-55q0 -6 -64 -65q-5 0 -64 65zM194 709q0 6 64 65h55q6 0 65 -65q0 -5 -65 -64h-55q-6 0 -64 64zM198 945v4q53 64 77 64h26q23 0 77 -64v-4q-54 -64 -77 -64h-26q-24 0 -77 64zM335 812v26q0 24 64 77h4q64 -53 64 -77v-26 q0 -23 -64 -77h-4q-64 54 -64 77z" />
<glyph unicode="&#x2026;" horiz-adv-x="1496" d="M108 121v55q0 6 64 64q5 0 64 -64v-55q0 -6 -64 -65q-5 0 -64 65zM194 26q0 6 64 65h55q6 0 65 -65q0 -5 -65 -64h-55q-6 0 -64 64zM198 262v4q53 64 77 64h26q23 0 77 -64v-4q-54 -64 -77 -64h-26q-24 0 -77 64zM335 129v26q0 24 64 77h4q64 -53 64 -77v-26 q0 -23 -64 -77h-4q-64 54 -64 77zM558 121v55q0 6 64 64q5 0 64 -64v-55q0 -6 -64 -65q-5 0 -64 65zM644 26q0 6 64 65h55q6 0 65 -65q0 -5 -65 -64h-55q-6 0 -64 64zM648 262v4q53 64 77 64h26q23 0 77 -64v-4q-54 -64 -77 -64h-26q-24 0 -77 64zM785 129v26q0 24 64 77h4 q64 -53 64 -77v-26q0 -23 -64 -77h-4q-64 54 -64 77zM1028 121v55q0 6 64 64q5 0 64 -64v-55q0 -6 -64 -65q-5 0 -64 65zM1114 26q0 6 64 65h55q6 0 65 -65q0 -5 -65 -64h-55q-6 0 -64 64zM1118 262v4q53 64 77 64h26q23 0 77 -64v-4q-54 -64 -77 -64h-26q-24 0 -77 64z M1255 129v26q0 24 64 77h4q64 -53 64 -77v-26q0 -23 -64 -77h-4q-64 54 -64 77z" />
<glyph unicode="&#x202f;" horiz-adv-x="357" />
<glyph unicode="&#x2039;" horiz-adv-x="631" d="M19 417v48q0 5 64 64h172q5 0 60 -60q0 -5 -60 -60h-228q-8 0 -8 8zM347 313v80h84q6 -1 124 -124v-84q0 -5 -40 -40q-8 3 -168 168zM347 561v72q1 6 132 132h72q5 0 44 -44q-3 -8 -168 -168h-72q-8 0 -8 8z" />
<glyph unicode="&#x203a;" horiz-adv-x="631" d="M19 721q39 44 44 44h72q131 -126 132 -132v-72q0 -8 -8 -8h-72q-165 160 -168 168zM59 185v84q118 123 124 124h84v-80q-160 -165 -168 -168q-40 35 -40 40zM299 469q55 60 60 60h172q64 -59 64 -64v-48q0 -8 -8 -8h-228q-60 55 -60 60z" />
<glyph unicode="&#x205f;" horiz-adv-x="446" />
<glyph unicode="&#x20ac;" horiz-adv-x="1418" d="M64 481v48q0 5 64 64h172q5 0 60 -60q0 -5 -60 -60h-228q-8 0 -8 8zM64 651v48q0 5 64 64h172q5 0 60 -60q0 -5 -60 -60h-228q-8 0 -8 8zM404 144v384q1 7 60 56q59 -49 60 -56v-384q-1 -7 -60 -56q-59 49 -60 56zM404 692v384q1 7 60 56q59 -49 60 -56v-384 q-1 -7 -60 -56q-59 49 -60 56zM488 60q49 59 56 60h384q7 -1 56 -60q-49 -59 -56 -60h-384q-7 1 -56 60zM488 1156q49 59 56 60h384q7 -1 56 -60q-49 -59 -56 -60h-384q-7 1 -56 60zM584 533q0 5 60 60h172q5 0 60 -60v-60h-232q-5 0 -60 60zM584 703q0 5 60 60h172 q5 0 60 -60v-60h-232q-5 0 -60 60z" />
<glyph unicode="&#x2122;" horiz-adv-x="838" d="M44 1018h341l-64 -48h-211q-3 0 -66 48zM183 558v155q0 2 33 22q32 -20 33 -22v-155q-1 -2 -33 -22q-33 20 -33 22zM183 777v154q0 3 33 23q32 -20 33 -23v-154q-1 -3 -33 -22q-33 19 -33 22zM405 519v207q0 3 29 23q28 -20 28 -23v-157q0 -2 -57 -50zM405 792v206 l57 -47v-159q0 -3 -28 -23q-29 20 -29 23zM415 1008h296l-56 -49h-183q-3 0 -57 49zM539 847v102h51v-102q0 -2 -26 -23zM665 567v157q0 2 28 25q3 0 29 -25v-205zM665 793v158l57 47v-205q0 -2 -29 -24q-2 0 -28 24z" />
<glyph unicode="&#x25fc;" horiz-adv-x="1090" d="M0 0v1090h1090v-1090h-1090z" />
</font>
</defs>
</svg>
